<mxfile host="app.diagrams.net" modified="2024-03-06T18:05:45.462Z" agent="Mozilla/5.0 (Windows NT 10.0; Win64; x64; rv:123.0) Gecko/20100101 Firefox/123.0" etag="RgDf_39LvvrTokgbl7zf" version="24.0.0" type="device">
  <diagram name="PÃ¡gina-1" id="X7k8aJx4FnttI1_92m4D">
    <mxGraphModel dx="2021" dy="716" grid="1" gridSize="10" guides="1" tooltips="1" connect="1" arrows="1" fold="1" page="1" pageScale="1" pageWidth="827" pageHeight="1169" math="0" shadow="0">
      <root>
        <mxCell id="0" />
        <mxCell id="1" parent="0" />
        <mxCell id="G-g93trVnGBwpuYnKkK7-1" value="" style="shape=image;verticalLabelPosition=bottom;labelBackgroundColor=default;verticalAlign=top;aspect=fixed;imageAspect=0;image=data:image/png,iVBORw0KGgoAAAANSUhEUgAABBUAAALgCAYAAADLDk+XAAAAAXNSR0IArs4c6QAAAARnQU1BAACxjwv8YQUAAAAJcEhZcwAADsMAAA7DAcdvqGQAANKKSURBVHhe7N0JfFTV2fjxZ7JA2JewySYMCCpioiKiuFOrNYFWXurCYvW1rfqvFVsrlNo25G0thVYL1lZ97aIm4FJetEjcUVBRRKqJiLKYICAoIWENJJCE+d9z7r2z5WYymUySmcnv28/t3Ln3zrkzE7xzznPPeY54HJSVlllroVUcOmKthUZ5zijPGeU5ozxnlOeM8pxRnjPKc0Z5zijPGeU5ozxnlOeM8pzFenlJAgAAAAAAEAGCCgAAAAAAICIEFQAAAAAAQEQIKgAAAAAAgIgQVAAAAAAAABEhqAAAAAAAACJCUAEAAAAAAESEoAIAAAAAAIiIq+LQEY+17lVVVSlpaR2sZ01HeU1DeU1DeU1DeU1DeU1DeU1DeU1DeU1DeU1DeU1DeU1DeU3T1soTj4Oy0jJrLTQVkAgH5TmjPGeU54zynFGeM8pzRnnOKM8Z5TmjPGeU54zynFGeM8pzFuvlMfwBAAAAAABEhKACAAAAAACICEEFAAAAAAAQEYIKAAAAAAAgIgQVAAAAAABARAgqAAAAAACAiBBUAAAAAAAAESGoAAAAAAAAIuIqKy3zWOsAAAAAAADh8zhQgYZwVBw6Yq2FRnnOKM8Z5TmjPGeU54zynFGeM8pzRnnOKM8Z5TmjPGeU54zynMV6eQx/AAAAAAAAESGoAAAAAAAAIkJQAQAAAAAARISgAgAAAAAAiAhBBQAAAAAAEBGCCgAAAAAAICIEFQAAAAAAQEQIKgAAAAAAgIi4Kg4d8VjrXlVVlZKW1sF61nSU1zSU1zSU1zSU1zSU1zSU1zSU1zSU1zSU1zSU1zSU1zSU1zRtrTzxOCgrLbPWQlMBiXBQnjPKc0Z5zijPGeU5ozxnlOeM8pxRnjPKc0Z5zijPGeU5ozxnsV6eS/2fFV/wKt9bLum9061nIbhyrZUGeHKslQZQnjPKc0Z5zijPGeU5ozxnlOeM8pxRnjPKc0Z5zijPGeU5ozxHRw4flU5dOlrP6hduez/c8sipAAAAAAAAIhKdngqXnCxy6RBz3cncS62VBsxdZa00gPKcUZ4zynNGec4ozxnlOaM8Z5TnjPKcUZ4zynNGec4oz1kbK6+1eipEJ6iQc0n4XxwAAAAAAIgqhj8AAAAAAIC4QlABAAAAAABEhKACAAAAAACICEEFAAAAAABilUroqPIZhjsFZQtzlZWW1UnUGK70Pg+ZKyRqBAAAAAAg+lRQIXe1Xi0vvUM/xhJmfwAAAAAAIFb5BRXEk2M+OojP2R/UB1ILAQUAAAAAANoccioAAAAAAICIEFQAAAAAAAARIagAAAAAAAAiQlABAAAAAABEhKACAAAAAACICEEFAAAAAAAQEZfHYK17hTtvJQAAAAAAaH1HDh+VTl06Ws/qF257P9zyXBWHjtQJKlRVVUpaWgfrWf3COQEAAAAAAGg61dBvqnDb++GipwIAAAAAAHGutXoqNC2ngivXXOausjYAAACgeRTJ7GEucbmsZdhsY0uQotkyzN6vl2zJt3YBANAcSNQIAAAQ81RAIVMWlFhPlZIFkukfWMjPFlfmAvE/RKRAZhBYAAA0I4IKAAAAsS7/XiugkCV5Ho94CmeJWz0tWSpLrKhC/tMF5kpWnqjRrR5PnnG0UiA5s+v0aQAAICoIKgBAqwijG7NN3X1Ux2RzrxFoq3wBg+tlunrMmC+5OmJQIkt1VCFffIfoIwzT5XozqgAAQLMhqAAALS6Mbsxe+ZI9w2opAGjz3KNGW2s+JRs3GP8/XVbo3gkeWWHHFPwCDaeNzjBXAACIMoIKANDSwujGrOkeCjOEkALQ1hXJhs+sVT+jR+krR73ys+3rR5Z4Oy8AABBlBBUAoIU13I1ZJXAfJi6rh4LbHbrhAADB8rNdYndyyspbYV5rAABoBgQVAMQdj0ekqrpGjlQdr7McPXZcTqgD4kD93Zgt7llSaHyWZVOs5wDgZ8PGwHkebP4BBfesQr/hELEhUa7hANBi5q4SceWaSwxylZWWRXzlTu/zkLmSc4nxQS811wGgiVSF8qt9B+WLr8vly7IDsmf/Ib3sPVghByuOSnXtCTl0tFKOHa+2XuGTlJQkPbp0kvYpSdIuNVUG9e4hXTt2kP7p3eTkvunGY3e9La1divWKlubLp6Aq+8XzzXHOqmdCptqosrYHtQBC7QPQNngDBX7XAXub47XEkJXnn1+h5ST2NRwAWoEKKuSu1qvlpXfox1ji8qiMPkHK95ZLeu9061kIdqSEoAKAJjheUytFJV/Khm27pLD4S/l81x45fLTK2ht9ae3ayeA+PWS0e6CcOXSAjBlxslFpTbP2NjeCCgAioHKsmFEFyfOo4Qz5kq1zrrhlVmGx6EuJ95jA60tza1vXcABoBX5BBfHkmI8Ojhw+Kp26dLSe1S/c9n645TUtqAAAEao8Vi1rPi2W1z/cJB9u3W48P27tiZ7kpCQZ1KenrnCec8pgqTWudr/8x3PWXh81XaOqnF50xnC5LGOk9O3RxdrTHJyDCk53IW0EFYC2xned8PU2cJg1RlHDpIrnS0Z9+y3RDjK03Ws4ALQCggoA4LNz737511sfyivrP5GjVdGthLqMZUDvnpI5bKCcNXywnG1UQnt17WTuNBR/VSY3Lfin9cyZqsSed5pbrr1kjPH6QbrMaAu3G7ONoALQ1jgFFZSgwIE3oGAomi3DMhdIPTGFqAUVuIYDQCsgqAAAIvsrjsojK96S1/7zqVTX1Fpbo2usUZFUd7TGn+6WwX16Wlt91Djey392v/WsYWcZFdr/N/FSOXVQX2tLlITTjdkPQQUArY1rOAC0IoIKANq6Nwo3y/1LX5fDRyvlhsvHyi1XjZdtX5dJyVdq2et93G9cuGpPnLBe1XiqC+w148+SH3/nMklJNie3UeUteOZVKTHON7Rfury07hO9PVzJyclyw2Xnyg+uvlCSjPIbL5JuzIEIKgBoTW37Gg4AMYCgAoC2bMmq9fLI8jelY1p7+cUNV8vFo4dbe+raZ1y4dpTuk2KjcrpNV1LLZHtpuRw6UimXZZ4qo4cOkAefW2kdHah9aqrMnDxBJo7zTdOopiabm1cg72383NoSufNOHyb33fxtaZ+SbG0JVwTdmIMQVADQWriGA0AMIKgAoK16/cPP5H/yC0TdHPq5URlVXVobm6G7pvaEHDAqpOld1Lhaj9z7z3/L2xu2mjst6d06S+6NkyTDPcDaInLoaJXc879L5dPtX1lbmm7S+Zlyz7VXWM8AILFxDQeAGEFQAUBbpKYY++5vHpV9h45YW8wEWqry6O7XS4ae1EuG9E2XYf1768d2qSlhJdQqM8q7+Q+Py4GKo9YWs9zhA/rIsJN6G4+9daKvh5evli++3msdEUidp86FLwyqYv3oT26U0xifCyDBcQ0HgBhCUAFAW/TB1h3y078+Yz0LTY2j7d+ru7ei6u7XW0Yalb6BxjZ/hyuPydZdpZL3+lpZv/kLa2vDOqW1N8rrJ2cNHySnn3yS/NWorBbvLrX2Ns71l42VH026xHoGAImJazgAxJ9WCypUHDpSJ6hQVVUpaWkdrGf1C+cEAJpTGOPy60wzZs840LxWb/jccT7xcKg7Vr+56dtSdbxaNm7/Sj5Ty86vZGfpvrCyjqe1S5UxI4boCuiZ7oE6uVf71BS9b8uuvfKPl9/R4313lx/Q2xoja9yZ8vPrrrSeAUBi4hoOALFJNfSbKtz2frjoqQDErTBmEPBOXRis+QMLe/Yflut++78RZQJXd6TUXOhHq45ZWwL169FVhpzUS4p375XygxVyIugy1rNrZ3nqF9+Xju1TrS11qZeoJGAqg/nnRjn+GcwrKo8Z++tcGrVfz5goV5x9qvUMABIT13AAiD/xOfzBlWs+5lwiMvdScx1Ay/AGDKwAgbdHgltmFRbL/Ax1iEvMQ+xZA/Il2zVD1Cb3rEIpVgc1E3Vl+f0zL8uL72+wtkTH8IF9Zf4t10if7l308wMVlfJm0WZ5YOlr+rntxm9eID/41ng5ccIjhyqrdHKxcKcTU5Vpc7q0vfou21sfb9Hbh/TtJX//2Y3SjuzhABIc13AAiD+tFVQwJwEGEHfyn7Z6IGRdb/Y4yJgvuVlqpUSWLikyHvPFd4jdJ2G6XK+PaX6rjErijVeMk9MG97e2NF3msEHy0I+u91ZGlb0HK+TxV961nvn8a/V6+Xr/IfnDv16TSb96SCbPfUTuevhZWfTcG7L8vY9lw7bdOiO5k749usi404bKZZkjZd9hM0lZF6NCe++0q+WtoKzlAJCIuIYDAMJFTwUgTtm9EPx7HNTtmRDM11MhK88jjodEydK3P5RX1m+UuTdO0neg1m3aZu0Jn0r+ZV+iLhw9QnKmX63H2trWbd4uv37833Kkni623Tt3DMgwHiwlOVkfM1QnF0vXmcfdeukl73+2TeY9/ZIcPlol/dO7S+5Nk+TZVesl1XjNnBuuskoAgMTENRwA4g/DHwA0gi+fgn9QoWj2MMlUG+sJKniDDi2QU0FVSBctWyl9enaV+276tny2c488VvCWruCF42Sjkrjwtu/Ke0bF8OCRSpl6+bkBXV/f/uRzyXlieVhJvyKVkpIsk87PkGsvGeOtVF89djQVUgAJj2s4AMQfggoAGqHxQQVfQKH5eykodoVUSU1JkckXnSUTzztT3/l6fk2hHK4MXTFVd6BW/uEnjmNoV328VXKffEFqapunMppqVEQvGj1Cpk4YK5t3fC2Pvfi2925ZrFZIPy7eJQVrP5EPNu+QnaX7ra2RGdSnh5w7crBkjTtDzhw2wNoKtG1t7b8xruHNKXZnbgIQ31orqEBOBSCBbNjoq3748w8oqCBEcwcUglXX1Mgzb34gtz+4WPWHlcfuvlHuue5KPb62PqqyqRJ0OVFjZe+a8g09RjaaBvdNl/++6kJ5/J6bZcyIwfKb/AL5w7OvhOx+GwvmLX5FbvnDYln2dlGTGzuKKkOVpcpUZQNtXVv/b4xreDQ5zNxUssD4LmcbeywqEXNAQEEpkBmubMm3ngFALKGnAhCnnPIn2Nscey8YWqKHgs3/LlcwdQfrwjOGy4SzTpURA/vKR5/vlPc3bZMNX+yW8oOHvWNw/3HPTdKlQ3tzujBjUY+f7y41KuT79P6m6pjWTk4f3F/OHTlExp46RCqPVctrH34qr3+0SQ7XkwAs1noq/PjBZ2Xtp1/o9cmXjZWLzz5N3AP66ueRKtm1R9768DNZ9uY6/Xzc6UPkz3deq9eBtqat/jfGNbyZxPjMTQDiG8MfADROcMXEW+nwVUx8x7R8RSRUhdRfp7T2Mto9QMad5pYzhvSXdqmpUmxUOrfuKpWygxXy2Y6vdPbuI5XOibzC0S41RdK7dJKT+6VLvx7djEpwHznFqAiracW27NwjH2/bJWs2Fsu+QxXWK+oXS0EFdYdT3e08qXcPmX3jpCY3dIKphs/8J5fLV3v3y+SLMmTOtCutPUDb0Jb/G+Ma3jwaviGwwTGhstNNAwBtyNxVIrmrzXVPjvnooNWCCmWlZc5908KQ3uchc4WgAtDMfN0lfZUMhy6UindsZj37Lc1dMQm3QhqsU4f2ei7xUwb0NpY+0q9nN+nSIU1OSu8mpQcqpKKyUqqO18qe/QfleE2N9apA/Xp213fHUpKTZHCfnsaxh+RYdY18VX5Qir8y75htMSrz+40LZWPFSlBBje9WXaeVhXd/L+qNHZtq9Nx1/xN6/e/3TCPHAtqMtv7fGNfw5uEUHHAKNARquZmbAMQov6BCeekd+jGW0FMBiAtOQQUlKHDgn+ypTpKnQLEaVKhPUlKSpBjLkH69xOUyL1spScn6zpVtz75DUlFlJw9z6YrooaOV9Y7rjUSsBBXsO6iqO/ZNE5v3+vv4C6t0N216K6Ataev/jXENbw6+32z/3+BYmrkJQIyK8Z4KTUvUqD6QWggoAM0sQ+YXe/Q41cD6hm+7XvyzR2fMl2J7u8MSb90nT5w4oe9qbfnya9m8c49eNm7fLS++v8G7/Gfrdu++zTu/1sm5olkZjSUqA72ixneHY/dT02TixWP0snCNtVHZ+aTMvOVJ2W2srvuduV8vv3vL3G+wz2GfE2gL+G8suriGR8YXUFAxBwIKAGITsz8AQByyM9CH1SXbaNTMf1jk5sXr5YV52bJyzjRZttPat6NESoYNkf5r5spvXhaZMM84ZvGd4n75p96GkX2OaGS9B+IF/42hpcTqzE0AEC6CCgCQKIxGi/cuqN/d0t3vvCIlcooMVLO/DXaLWzbLDuuG6O4dW8U9dIjI+Lnywlvr5a7x5nZlm30QABP/jaFJMmS01fGlZOMGc8WPe9Roa80cEuHroRB/vQsBtC1Ny6kAAJa9h4/JknU7ZOaEU/Tzf79XJH989lW9nkj8x+O6bv2XfmwNY1zb9OPyB2bpR93FetqDMnSe1WhRjZ85W+XmxYtlYN4Y+c3L2fKrt+bKWOs4uX2ZLLpBZNktc0TmLpbJftPNq27ct+q7rr7tk366QD+u9wzVj0Cia6v/jXke/a5+bAvX8EUrt8q08wZLr87t9fMWEeMzNwGIUQmdUwEALJMfeVfuerZQ/vT6Fv1cZf9ORD27drLWYot5p1Rk5RzrLuqcFcYz391SZ1/Ijq3W3VWb0VC69eHN4r59XkAjCGjr2tp/Y4l+DVe/Veo3a+JD78jR47V6W/SpxIwucblckp1vbZp+n8xyq5UCmWFsd1mzOoh7ikzVsQPjNTlWFwVDyYJM/Xp7GTa7yNoDALGDngoAmuy2/P/Io2+XSIfUZHl39uWSOai71Jw4IdPm/UN2lyXOGOHk5GR5YtbNcnKfHtaW1nPubeZdTfsuqtOdT5u575SAu6j6bqvMlYmrL5cXfnGxeaC1r+SqB3zbLPZd1A8ese7aAgmurf83lujX8E92HZTxC96QQ1U1ck3mAPm/2y4wGu3WgVETfzM3AYhR9FQAkMgeWV2sAwrK4zedqwMKipo67KdTviEpKcn6eSKYevnYmAgoOOl/4ZV6HPfqd8zbpqqRM/HiubLOu2+FvKvGf6ukcTJSBg82jrHHemtvyULV2DnlTnk0qLEDoO39N5bo1/AzBnSTZbePl9RklzxXuEt+8myh3h5dzNwEoG0gqAAgYms+L5M7n/lIr8++cqRcOybw9t15I4fI3VOukHapKdaW+PXt8Zny/W/5ZVhrZYOsinHJrj36UQbdKIvmZUvJw5N112zzjupcGWvtm337SLPb9pwVMmGeeaf1y22bZahq+Rh2P/Wo6Bnptz4ot1pJ6GY+ZTae7HPY5wTaAv4bS/xr+IRT+8jfZpyr1xe9sVUWrtyq1wEg5sy91OyhEKKXQmtyVRw6Umf4Q1VVpaSldbCe1S+crhAAEtOX+yvl7N++Jnsrjsm3RvWTgh9fVG/X0Q3bdsvvnnpJvty7z9oSPzq0byd3fPsymXj+mRL1nrFNMG/xK7Ls7SKZfNlYuWmi8UPTjB5/YZUse3OdTL4oQ+ZMu9LaCiQ2/hvzSfRr+NwXNkruik8lyThADYP4TuYAaw8AxB41JKGpwm3vh4ucCgAaraq6Vi6Y/4Z8tPOAjOzbRdbNmSBdO6Rae51VVdfIkjfWyb9W/0cqKqusrbErJTlZLj/rVPlh1kXSt3sXa2vs+Lh4l9zyh8V6feHd3wtvLv0IqDuod93/hF7/+z3T5MxhVLbRNvDfWKBEv4bf9Pg6eeK97To30Jt3XyrnDe1p7QGA+NFaORWS5xqsda/Ko5XSsVMYvRBcub6EEZfaYwYBJLrp/1gnr28qlW4dUuWNn14i/bs3HOlMSU6Ss4YPkuxxZ0q3zh1ld/lBOXw09iqmnTq0N95jhvxy2tUy0XivndNacKqxRujbs6uUH6yQz3bskaLPd8go90Dp0bWztTc6VGNn/pPLpcL4O6k7qFMuOcvaAyQ+/hsLlOjX8OzR/eW94jLZUlohzxfukv86e6D07NTO2gsA8aH6eLW0ax/6Rp8Sbns/3PKa1lNBBRWUnEvMcR4AEt7vX94kc57boLuJqiEPV43qZ+1pnBPGpeeTL76SNws3yZqNxfJV+QFrT8vr2qmDjBlxslyeeaqcd+pQSWsXP+OHf/zgs7L20y/0uuqmffHZpzX5jqpq6Lz14We6O7Yy7vQh8uc7r9XrQFvDf2POEvEafriqRs8IsWHXQRneu7Os/fkESe9MYAFA/GitngoEFQCE7eWNX0vWn982KpMi864ZLT+/6lRrT9Pt2LtfCot3yoaSXbLlyz2yy6igHjtebe2NnuSkJOnVrYuMGNhHRg8dYCwD5fST+0lS9OcSazH22O/mQB4FgP/GwpEo1/DdBypl7LyVsst4HDe0px4KkZaaODNgAEhsBBUAxLQtew7ritbBymq5bswgefoH46w9zeNI1XHZe7BCJwbbXrpPDhyp0vOlq3wOX5Xvl5raEyLW5auqplbaJyeJy6hUqkXp3aObdO/YXrp36SS9unaSwX16Sr+e3eSknl2lR+eGL47xRo3/Llj7iXyweYfsLG3avPIqA/25IwdL1rgzyKEAWPhvrHHi+Rr+ya6DusfCoaoauSZzgE7eGKWYBQA0K4IKAGLWocpqHVDYvOewnDWou7w7+/KYunNTe8IjyWo8BgAg7sTiNXzlplL55sLVumeemjL595PPtPYAQOxqraBCkvUIAI5qaj1y/WNrdUChd+f2svxHF8ZcV1ACCgAQv2LxGj7h1D5y/3cz9fr8VzbLk+9t1+sAgLroqQAgpNvy/yOPvl0iqckuefOnl8r44b2sPQAAJC415OXexatl++490l6alh+CYWUAWgLDHwBETTTH/h6TVDnkSZP/vuIc+fWUsdZWAAASF8k5AcSUuatEcleb654c89FBqwUVykrL6gQVwpXe5yFzhaACEDPivyK0RRZN+pnIH5fLzBHWJgBAnIj/azjTiAKIOX5BhfLSO/RjLKGnApBAEqMipCqkUyVvt7Haf4YsWT5TwqmXblk0SabqF/kZnyvrF2Xp1YKZYyRnjV7VxueuF2sXACBqmuEavmWRTJqaJ/57m+sabgfmT+rdQ2bfOKnJv6HB1G/q/CeXy1d799NjAUD4YrynQtMSNaoPpBYCCkCrUxUhFVBQFaGFd39Pbpp4aVQqQ6oMVZYqU5WtzqHO1SJ258nUMWNkZoH1vAF9Tu9j1GGXyPr16yV3vEiPbTkyadEWXSF9tXuWjFf71A7pIWtyZkqYxQIAIhGta/iImbLc2Ka2r18yQ/ob//u0Ga7hauig3dOvOQIKiipTla2oc6lzAkC8Y/YHIAEkekVoTc4YGTOmcRXIrG+Ol/2dR8jukq26QrooN1cWqb64Wd8UFVboL9vkc6OuCgBoXk2+hgfr011S+7vlFOtptKhcRIrq6dccv6M2VbY6h2KfEwDiGUEFIAG0jYrQGskZY1RMw7zlVfDqGpG9daMGWxY9Kmv6i+wefys5GwCgxTT1Gl4gM9Xr1TCIlHNkYZjDKhpDJTdW1NDBcOx+appMvHiMXhb6Da+TnU/KzFue9A3XUM+DjrHPYZ8TAOIZQQUgAbSlilD/ba+K6g3rpPTTUtmdN1XGGBVPnT+hwwxZ4j/odssi+dmGodJ/6F3eXAsAgJYT+TU8SxbZwx92Pyc/HDOp3nIiZc+WFFZw3vh9nP+wyM2L18sL87Jl5ZxpsmyntW9HiZQMGyL91br6HZ32oJToHT72OZo6QxMAxAKCCkACaBMVIZXwy6hQLl++qN4eBvZ43CUzjE/Qv4fI0OF+d7IKZObPSqRPqVv+SEAh7hXNHiYul8u3ZOdbe/zkZwcc43RIYDnDZHa9E6cUyexhDR1jy5dsv/MGL8Hvo85nCVqGOZwwP7vhYxwVzZZhfq9zubKNdxtN1mev82WH/v4a83m8xzr9QRG7mnwNt4yYKbeOr5D+I3aL08iIqFsz1xuE9w/E737nFeP38RQZOMh4MtgtbtksO6xY++4dW8U9dEi9v6MAkGgIKgCJKoEqQirL9/pGdHUdMXO55A7dLyP25lgJwlQ28r/I/pptMvqP0e8yi5alGpWZC4L+dRbMCGxkqoDCjMBu1gUzAhv0qjEfWE6JLMh0bvQWzZ4swaeMlHofYQcBDCULMgOOV58/6KPVOcaR+k4yFwT9d10gM6IZWMh/2ihRJOv66eZzS/3fnxlsCPvzFM2WnKBjEfuafg33VyCvrukhFVv6izvaSRWCqd/COStkwrz18sJbgYH4L7dttg7y2aZ/THfI2tdFLrlwsLnxqgf06wAgkRFUABJRolSE1HRi6yObNixrUa703tJDtuVMkkWvvSQrd5fKp6W7JW+qShhmLuFmJEcsyZenrb9bVp5H1KzInjzrH0hBjhUQMBqqVsvTPatQH+M95Gm7+Zwv91qtXLOcQpnlVs9KZOkS/8as2eitE8QIk/c9Wov9PkoWTK4bvHDPkkK/YwOOX7rEeCeK7/Pbn63QfON+xzjL931xVvl5YhZfIDkNBSTCVLThM+P/3TJqtPm8we+vaIks1bvcMqvQ/Mzez7Pg3qBgh1HW5OCgCGJatK7hf5/pvW6PGZMja2S/yIw/NnteHDMIL8bvpxWgN35XxS8Q7+wL2bHVCtwPulEW/eJiczMAJDCCCkACiv+K0HjJVWNnG1ETVXe2XnzyRVnurWWq8bevyfL1y2XmFX7TkfktjIKIQ9adcPX39d4Mn3691Ti2+DVUp0zN0Jum3zfLeGYoeNpsqNYpJ0Pm55ql+Dfgs12Z5h12t+rV48Q31CGc3vjTV9QXvHA2/Xrrk5VslA3mmsX32TJGW7lU/I7xDqkYNrtOMMLXi2C62MV7eYdH+PfYCP8zbtiovqzTZLR+aw1/f0VLlppBAvcUsT6OZEyd4nxsFHuLoLlF+Rp+y6I612/fcc1tpDlcUAXoreWu8SIDh4609vsMHTxYZM0bsvKqy8VMaQwAUTL3UhFPjrnEoKQjh49K8KI4bQ9eAMSyeK0IjZCZyxcFNhIB2/QV1l32FUaT2OINENiNWVvwc+Uz2eDflnePEu9NdVtQA173NijONUqLhgyZOsVsMjfUs0Dx9S643vq8o2VUUFCi7jFOpssK/b15ZIXvi/MGGk6r+0VFwCov6H2E+v4y5hebf8/i+cY3Y/IFGvz/NnbPkizJ4uIQ4xLnGt7/wivFLZtl9TtmRN5McjxX1nn3rZB31dBClY/I+M1VP6XeYYQA0Eyc2uX20tB+e4n2cUmdunSU4EVx2h68AIhNVITQduRLtj0g327MbthoNkr9ZYwOaNSa3fSDjB4VdIfcbIj7GuFOnBrroXl7FgQrWSCZVo8Ae9EfTQ2L8BaeIfOLzWELKu+A8zHOjfVg+dkz6vb6yJgvxfrzFMt87wvD/IxFG0QPfvCOfQjn+wtSNFsmW90R3FOmet+7/V6z8lbI9eYmIOoG9emhH0t27dGPutfevGwpeXiy7vV3q05yPNcMvhv7Zt8+0uwRqIcbLpbJg8whhjpQ3wD7HPY5ASBcTu1ye2lov71E+7imDX9w5ZrL3FXWBgCtgYoQ2ibVvd7XMM5rVOs1jpQskMn+OQ+8PTP8lCyVMEZTePkne1QN9ah8c1YwJ+JeD2rohZ1I0j1LltlRjfxs871m5TUuQAE00rkjzd/Atz70CzqOn+vX48/8vbT1v2FxQE9AZewvfOteVhn+2+1z2OcEgHhGTgUgAVARQtvjH1BQSf4aaBhbd9FDcurh0Awce0koDoka7SSUvsSOvp4ZgYkq1cwV4c3i4B9QUMkeo9VQN4dh+PV6aAz/gIIKEHl7WNhJN42/8X1EFNC8ssadoR+XvbnOF6RvBqpsdQ7FPicAxDOCCkACoCKEtkXNKODXQyGgq77BO4whKH+CZuZZcEpu6OWUZyGKzGSGxmn8uvfXa/p93sSOG9UbrZNg0uBNVOn0eQOpBI6+HgoeKQ744pqiSMyJHyL57vIl26+HQqF/vgxv0k0VNPEbEqKoaURdTNWH6Dlz2ACZfJH538T8J5c3y++pKlOVrahzqXMCQLwjqAAkACpCaEvys60ZBerroZAxVcxciL5kht7kf3beBW9DvEDsWSbthIdhNfYj5GvU+2ZvCCn/3sAZD7wBE9/7dhwO4SQ/2zu1YzR7KJg2iIqVNP67CwoQhcgBAbSEOdOulHGnD5Gv9u6Xu+5/Qh5/YVVUflNVGaosVaYqW51DnQsAEoHLo/pOBinfWy7pvdOtZyGofApKziXmNBcAWtWPH3xW1n76hV6ffNlYufjs08Q9oK9+HilVEVJDHuweCqoi9Oc7r9XrQIsL6CYfTAUZrF4LRgPa5b2l7aPuztuNadXAtxvZPn5lBLCHWwTv9w3D8JXtPzTDmWrU270EnN9HEHUHXze4VSPcDqoEycoTj/XhvGWG8zqD9/14v1//z+n0GYNY33e9++v7/ur5O5lUL5S6QSPv8A2/zwtE27zFr8iytxuRqKQRVGCegAKA5qBmYlCJExsSbns/3PLoqQAkENXYt3ssqCCAuiMy6acLmrSoMuyAgiqbgAJak7fHQUPU1JNWPgJbcINXzZBQaI4tsNQXUIgmdY5GDjvwBgYUNfuDR4I+mg4KhGxge4cRNA8zT4RbvBM/hMk7HSYQY1Sj/+/3TNO/e9FITHxMUiWpSy95+Cc3EFAAkHDoqQAkoI+Ld0nB2k9k3aYd8uXe/dbWyKjKlErKqHIoMOQBAIDG+WTXQRk7b6VUVtfKNZkDZNntF1h7ACC6WqunAkEFIIFd/9haeWb9TunWIVXWzZkgI/p2sfYAAICW8nzhLvmvR96VE0atOyf7dJk7cZS1BwDCMHeVSO5qc92TYz46aLWgQllpWZ2gQrjS+zxkrhBUAGLO71/eJHOe2yBJLpGCH18kV43qZ+0BAAAtbeHKrfKTZwv1+hM3jZUbzz9ZrwNAg/yCCuWld+jHWEJPBSABvbzxa8n689v6jsi8a0bLz6861doDAABay13PFMqiN7ZKarJLXrrzYplwah9rDwCEEOM9FZqWqFF9ILUQUABixpY9h/WwBxVQuG7MIAIKAADEiD9dm6nzKlTXemTyw2t0vgUAiHfM/gAkkEOV1TLpL2vkoPF41qDu8vhN51p7AABAa3O5RJZ8/zwZN7SnHKqqkasefFt2H6i09gJAfCKoACQINZBJ9VDYvOew9O7cXpb/6EJJS0229gIAgFigfptX3HGRDO/dWXYdqNSBhcNVNdZeAIg/BBWABDHnuY/lpY1f63Gaz91+gQzs0cHaAwAAYkl653by8syLpJfxuGHXQT0UoqY24tzpANCqCCoACeDZ9Ttl/iub9fqD150l44f30usAACA2DevdWfdY6JCaLK9vKpXv531g7QGA+EJQAYhzhTsPyE2PmxWRWy9yy22XDNPrAAAgtp03tKfOsaCmf37ive0y94WN1h4AiB8EFYA4VlZxTCb95R2prK6VC4f3koduONvaAwAA4sF3MgfI/d/N1Ou5Kz6VJ9/brtcBIF4QVADilBp7ec3D78rO/ZUyqEcHnUchJdll7QUAAPHirgmn6N6GihoG8f62fXodALS5l4p4cswlBrkqDh2pkxWmqqpS0tIaTvLWqUtHaw1AS7st/z/y6Nsleizmu7Mvl8xB3a09AAAg3qibBd968C2dX0ElcFz78wk67wIA+Dty+Ki1Frlw2/vhcnkM1rpX+d5ySe+dbj0DEGseWV0sty/5UK8/84Nxcu2YQXodAADELzW15PgFb+gZIdSUkyqwoGaKAIBwqIBDODf+w23vh1te04Y/uHLNZe4qawOA5rbm8zK585mP9PrsK0cSUAAAIEF0SUuRl++8SAZ07yCf762Q7IfelqrqWmsvAMQmcioAceTL/ZU6j0K16iI5qp/Mu+ZMaw8AAEgE/bt30IGFrmkpsnbbPpn6t/elbr9iAIgdBBWAOKHuVKiZHvZWHJORfbvI0z8YJy7yMgIAkHDOGNBNlt0+XlKTXfJc4S75ybOF1h4AiD0EFYA4cdPjH8hHOw9Itw6psvxH46Wr8QgAABLThFP7yN9mnKvXF72xVRau3KrXASDWEFQA4sDcFzbKM+t3SpJLdA+FEX27WHsAAECiuvH8kyUn+3S9fve/CuX5wl16HQBiCUEFIMY9u36n5K74VK/f953RctWofnodAAAkvrkTR8n3zj9ZTnhE51d4f9s+aw8AxAaCCkAMK9x5QA97UK4bM0h+ftWpeh0AALQdahjEN07tI5XVtXpGiOK9FdYeAGh9BBWAGFVWcUwnZlQViLMGdZfHbzLHVQIAgLYlJdmlEzeOHtDNqB8cl6sWvS3lxiOANmLuKhFXrrnEIFdZaVnEk9Sk93nIXMm5xPigl5rrAJqsptYjlz2wSt75vEx6d24vH/7yChnYo4O1FwAAtEW7D1RKxm9e1YGFcUN7ytv3XK4DDgASnAoq5K7Wq+Wld+jHWOLyGKx1r/K95ZLeO916FoIdKSGoAETVbfn/kUffLtFTSb3500tl/PBe1h4AANCWqZwKl92/SvdkVLkWHr9prLUHQMLyCyqIJ8d8dHDk8FHp1KWj9ax+4bb3wy2vacMf1AdSCwEFIGoeWV2sAwrKg9edRUABAAB4nTe0pyz5/nl6Rqgn3tuuZ4gCgNZETgUgxtx2yTDxPPpdvah1AAAAf9/JHCD3fzdTr6sZop58b7teB4DWQFABAAAAiDN3TThFZl5+il7/ft4HsnJTqV4HgJZGUAEAAACIQ3+6NlOuyRwg1bUemfzwGvlk10FrDwC0HIIKAAAAQBxyuUTnV1AzQRyqqpGrHnxbzxABAC2JoAIAAAAQp9JSk2XFHRfJ8N6dZdeBSh1YOFxVY+0FgOZHUAHNqmj2MHG5XL4lO9/a4yc/O+AYp0MCyxkms4usHXUUyexhDR1jy5dsv/MGL8Hvo85nCVqGOZwwP7vhY0KyvxunL6VJrM/uX27Q3yHke/Uem22UBAAAWlN653by8syLpJfxuGHXQT0Uoqa2zqzxANAsCCqg2agGdeYCc2pEr4IZdRuyMwqsJ6aCGYENetWYDyynRBZkOgcNimZPluBTRkq9j8YEAUoWZAYcrz5/0Eerc0xoRsM/uIBoyX9aVMlZ10+3ntf9O6j36hzLKJLZOc30vgAAQESG9e4se+//tp496rWfXCIpyS5rD4C4N/dSEU+OucSgpCOHj0rwojhtD16A+uXL01a7MyvPIx6PseRlmRsKcqyAgK9x6p5VqI/xHvK03ZrNl3utKIFZTqHMcqtnJbJ0iX/j3OyhUCeIESbve7QW+32ULJhcN3jhniWFfscGHL90ifFOFN/ntz9bofnG/Y4JQfcEmKEb/s2haMNnxv+7ZdRo9cwOXrhlVmHg5/H9HXyiGbgBAAAAED6ndrm9NLTfXqJ9XFKnLh0leFGctgcvQL2sO+FGc13sm+Ey/XrjmZ+iJbJUN07dMmVqht40/b5ZxjNDwdNGU9dQp5wMmZ9rluLfgM92ZZoNXbfbfH0dvqEO4YwkmL6ivuCFs+nX21GFjbLBXLP4PlvG6NP0o/8x3iEVw2Z7Aw16m9VrwG18HkdFs2WY/jz+PTbC/4wbNqov6zQZrd5a0QZRIQZxTxHrrRqf3wqYrLD/eBbjvJOJKAAAAACtwqldbi8N7beXaB/XtOEPrlxzmbvK2gBYpq+w7uKvEG+z1BsgsBqzXsHPlc9kg39b3j1K9E11f0ENeN3boDjXKC0aMmTqlPB7FuR7u2Vcb33e0TIqKChR95gQrN4Qy6ZYz6PK6kVhv48NG413aTC+uCU6H0X9gYn8exfoY7OyAsJDAAAAANoociqghfjlBwhuzPrLGB0QFDC76QcZPSqoN8J0WWE0wINvqgcyj1GBjtDH+Xh7FgQrWSCZVsPbXszRA7Ok0Ft4hswvztM9M1RuAudjjKPmF5vBl+L5xiv8tvk9d5QxX4r15ymW+d4Dw/yMVs8Etzn2wfcdFywIGNYQnNtCDcnQnyErT1Zcb24CAAAA0LYRVEALUN3y7fwAWZIXbqs+3pQskMn+CRi8PTP8lCyVMEZTNC8rmHNane4hDjkVcuxhGXZQKIH/fgAAhKHObFCOXfsCZ1RyOiSwnDYws1XQd8LMVkDiIKiAZuYfUFCNVr/hEE7s8f2hOPVwaAaOvSQUh0SNdhJKX2JHuxGubuz7H6NmrmjdHytzGIYv14W3R4Z/ToWgHBFFs3P039A9677Qfz8AABIYM1tFOLOVw3dS53trKutmDjNbAS2PoAKakYqs+/VQCOiqb/AOYwjKn6CZeRackht6OeVZiCIzmaFqa08NPRRBmX6fN7HjRvVG6ySYNHgTVTp93pZSJObEDw18dwFDTIpkiZlRU/8Y6yi+90e6QGYYz6NZJwAAIDYxs5X9+Rs7s5Uvr1SeWb7vS4najRZmtgJaD0EFNJv8bGtGhvp6KGRMFTMXou9HtGjJUuOZwc674G2IF4j9G2D/MIXV2I+QuoNgtpt9szeElH9v4I+Rt1Hue9++QENr2iAqVhLw3dnfcckCudf+jq2EjM0duAEAIG6EvGFgYWYrXYfSNyD8Zraqd1Yp/3oGM1sBcYugApqHcYH29SJTXfrMHwRzsX8s/H5ErTvgdjTe23VNpst9VhRcddlTxzSqse8V+kfJLtte7PfhnrUssHeF4pCo0Xvn3j1L7lNv3Rsw8SvbPiYr11um0w9vWCL94bUqMqcF5FOo7ztWb1UljFRJJ60fYnuxw/1GhSjPeE6aBQBAwmNmq6bNbKVZ+SF0RcMts5Y1kJg6bMxsBbQmggpoFt4eBw1RP9DeBqpJ/YD6N1LVbAh29zqT6vkQNJQi6szucsWNOYnqOuidtcFsiAd9NLO7YCu2wAO7BvroGSca+DsAAAB/+cxsVecYq06h3pfjTFZmj0lTUI8JZrYC6jd3lYgr11xikKustMxjrTdaep+HzJWcS4wPeqm5DgAAACQ01TvQP2+U1XvBmxzQb5v3WPOmyNQlVpJG/5sRqgdiprpj7v86W+DrQ9/v8L0vx5sD9vuzzi11EkbWpW6IeG+yOCVcDOt9BfF+3ijdKLLel/2ZfYkwfeV7k0x6v3f7u7K+c8e/HRAjVFAhd7VeLS+9Qz/GkqT03ukSvChO24MXAAAAoG3xDyioRmsDDVBmtqrLIa9WUzCzFdoSp3a5vaSldXDcHrw0VI69hFte04Y/eHLMhV4KAAAASHjMbOXfePclqgw1s5UKwtSf06DpmNkKaG3kVAAAICqsBGR+lVFvMtaApKomp0StqnuueXz9S/bv7ESt9S/2nPG+8zsvgXPL+yr+deeOr9soaKjsgM+suhU7HuNbgHjAzFZKY2e2shM8Gq+0X+idJSM4eXQkmNkKaG0EFQAAaHYlssCu2cYQdYcuMLBg8c65D8CLma0inNnK950YLzT36XwKBpUg0f5amNkKiFsEFQAAaAlGZbreSrHFO4+6QwXX3r7C3qzvlPod77fUmbnGYby0PauO89RyRoNpcphT3TqNxdaLX7dw71R8ajGzxyvecdnGAsQ6ZrZqwsxW6jspnGX1dLBk5UVlRixmtgJaH0EFoIkOVVbLqb9+WVy3/kvO/u1rUlVda+0BgEAFOWE21FtAyHHdil+3YQBWI9UbHAteggICAYE054ZsYHmhAgr2tIrBxzhNt+jbVnepe47Qn8lYHKaFDAh+GktwkMJbZvBrvVNGWkvwlxLhlJLm+er5/sL4O3h5j2XmB6CxCCoATWD89sj1j62VzXsOS+/O7WX5jy6UtNRkay8AWNxu8w6d0VCfHCPjCuwx3E7ji93G+1UKZjQyozsAAGhzCCoATTDnuY/lpY1fS2qyS567/QIZ2KODtQcA/E2RXHu4wYJ7o9RQDx7TbS8OgQCH8dKB44sDnZab600kl9NQEMRpLLZaGhrrAQAAEgJBBSBCz67fKfNf2azXH7zuLBk/vJdeBwAno+cvs6ZnK5AZsdDgtnIhOHcHni4rrLHIvjnqAQBAq5h7qYgnx1xiUNKRw0cleFGctgcvQFtVuPOA3PT4B3r91ovcctslw/Q6ANTPPwN6jty70VyNXH2JGh3GA3uTKfqSJNabS8HmN0f9gnuf1psc1ZeoMeTgZQAAEAmndrm9NLTfXqJ9XFKnLh0leFGctgcvQFtUVnFMJv3lHamsrpULh/eSh24429oDAA2YvsLKnF4iBQVh5ZGPsumywpuBvUBmeKd8c5Ih85dZxxYUhDEXPQAAaG5O7XJ7aWi/vUT7uKYNf3DlmsvcVdYGILHV1HrkmofflZ37K2VQjw46j0JKssvaCwANm35f0LRqLS1jviyzp7JraIYH41i7cwWAtuf9bfuk4x3L9AxXNz2+ztoKAIHIqQA0wh1PfSjvfF4mHVKT9UwPvTq3t/YAQJj8G/VNUl+iRmNpIGdDhje/gzQ4w8P0FX5DJpzUl6jRWMjVCMS384b2lCXfP0+vP/Hedvn9y5v0OgD4I6gAhOmR1cXy6Ntmd+XHbzpXMgd11+sA0FgZ8+3ZFVqL39CGBhNHTpf7ohIEARCPvpM5QHKyT9fr9z6/QZ4v3KXXAcDm8qhsSkHK95ZLeu9061kIauiDknOJmZESSFAvb/xa51GorvXI7CtHyu8nn2ntAQAASHxq+IPqraB6a75596W6FwOA2KKSJqocBw0Jt70fbnn0VAAasGXPYbn+sbU6oPCtUf1k3jUEFAAAQNvytxnnyjdO7aMTVWc/9LYU762w9gBo6wgqACEcqqyWSX9ZIweNx5F9u8jTPxgnLvIyAgCANkYlpl52+3gZPaCblFUcl6sWvS3lxiMAEFQA6qEGBqkeCpv3HJZuHVJl+Y/GS1fjEQAAoC3qkpYiL995kQzo3kE+31uheyxUVddaewG0VQQVgHrMee5jeWnj15LkEt1DYUTfLtYeAACAtql/9w46sNA1LUXWbtsnU//2vr4RA6AZzV1l5jO0cxrGGFdZaVnEl4H0Pg+ZKyRqRIJ5dv1Oue6xtXp93jWj5edXnarXAQAAILJyU6l868G3dM6pmZefIguvy7T2AIg6FVTIXa1Xy0vv0I+xhNkfgCCFOw/IBfPf0ImIrhszSPdSAAAAQKAn39su33t8nV7/07WZcteEU/Q6gCjzCyqIJ8d8dBCfsz+oD6QWAgpIEGUVx/TUkSqgcNag7vL4TedaewAAAODvxvNPlpzs0/X63f8qlOcLd+l1AG0LORUAS02tR655+F3Zub9SenduL8t/dKGkpSZbewEAABBs7sRR8r3zT5YTHtH5Fd7fts/aA6CtIKiAJiqS2cNc4nJZy7DZxpZ65Gebx2TnWxtiyx1PfSjvfF4mqckuee72C2Rgjw7WHgAAANTnbzPOlXFDe+qenmpGiN0HKq09ANoCggpoAhVQyJQFJdZTpWSBZDoGFvIle0aBtR57HlldLI++bX6QB687S8YP76XXAQAAEFpKsktW3HGRDO/dWcoqjstVD74th6tqrL0AEh1BBUQu/14roJAleR6PeApniVs9LVkqS/yjCrqHwgyJ1ZDCms/L5M5nPtLrt17kltsuGabXAQAAEJ70zu3k5ZkXSS/jccOugzL54TV6aCmAxEdQARHLf9oKE2RdL9PVY8Z8yc1SKyWy1IoqFM0eJi6rh4LbrUMOMeXL/ZU6j4KaDunC4b3koRvOtvYAAACgMYb17qx7LHRITZbXN5XK9/M+sPbEg8QZ0gu0NIIKaDL3qNHWmk/Jxg3WmsE9Swo9Hlk2xXoeI6qqa/VMD3srjsmgHh10HgXVfQ8AAACROW9oT1ny/fMkyahSPfHedpn7wkZrTyxLnCG9QGsgqIAIFcmGz6xVP6NHBfZGyJhfLJ7i+ZJhPY8lNz3+gXy084COpquZHnp1bm/tAQAAQKS+kzlA7v9upl7PXfGpPPnedr0esxJkSC8S2NxLRTw55hKDko4cPirBi+K0PXgB4tXvX94kz6zfqdcfv+lcyRzUXa8DAACg6e6acIrMvPwUva6GQazcVKrXY1EiDOlF2+HULreXhvbbS7SPS+rUpaMEL4rT9uAFCLZho3+/sdj08sav5d7nzeEZOdmny7VjBul1AAAARM+frs2UazIH6NxVKnHjJ7sOWntiU7wO6UXb4tQut5eG9ttLtI9r2vAHV665zF1lbUDbkSGjTzPXAi62FqeLcizYsuewXP/YWjnhEbluzCCZO3GUtQcAAADR5HKJzq8wbmhPOVRVo6ea3H2g0tobK+J/SC/Q2sipgIhNv173CxMpeFrM3Lf5YvYec8uUqbF3yT1UWS2T/rJGDhqPZw3qroc9AAAAoPmkpSbrGSGG9+4suw5U6sDC4aoaay+AREBQAWHyTbPjnT1n+n0ySwdxC2SGnn7HSlzjniKxFlPweET3UNi857D07txeJ2ZUP3IAAABoXumd28nLMy+SXsbjhl0H9VCImlqjchbD4mFILxArCCqgCTJkfnGhFViwqLFmMdg1bM5zH8tLG7+W1GSXnjpyYI8O1h4AAAA0t2G9O+seC6ou9vqmUrnjqQ+tPa0tPof0ArGEoALCpAIIHvF4PLJCp8W1+bbrJURAQY9FU8cEFtDsnl2/U+a/slmvP3jdWTJ+eC+9DgAAgJZz3tCe8rcZ5vDTR98ukYUrt+r11hZvQ3qBWENQAQmtcOcBuenxD/T6rRe55bZLhul1AAAAtLwbzz9Zz76l3P2vQnm+cJdebznxPaQXiEUEFZCwyiqOyaS/vCOV1bVy4fBe8tANZ1t7AAAA0FrU7FvfO/9kPRvX1L+9L+9v22ftaS3xM6QXiEUuj+qPHqR8b7mk9063noWgppNUci4xrg6XmutADFDJfy57YJW883mZDOrRQT785RXSq3N7ay8AAABak6qrfevBt3R+BZXAce3PJ+i8CwAczF0lkrvaXPfkmI8Ojhw+Kp26dLSe1S/c9n645bnKSssiTr2a3uchc4WgAmLMbfn/0WP1OqQmy7uzL5fMQd2tPQAAAIgFamrJ8Qve0DNCqCknVWBBzRQBIIhfUKG89A79GEvoqYCE88jqYrl9iZlR+JkfjJNrxwzS6wAAAIgtuw9Uyth5K2WX8ThuaE958+5LmfYbCBbjPRWallNBfSC1EFBAjFjzeZnc+cxHen32lSMJKAAAAMSw/t07yMt3XiRd01Jk7bZ9OsdC3VueAGIZiRqRML7cXynXPPyuVKsxeqP6ybxrzrT2AAAAIFadMaCbLLt9vKQmu+S5wl3yk2cLrT0A4gFBBSSEqupaPdPD3opjMrJvF3n6B+PE5bJ2AgAAIKZNOLWP/G3GuXp90RtbZeHKrXodQOwjqICEcNPjH8hHOw9Itw6psvxH46Wr8QgAAID4ceP5J0tO9ul6/e5/Fcrzhbv0OoDY1rREjUAM+P3Lm2TOcxskySVS8OOL5KpR/aw9AAAAiCcfF++Smf9YKeXl5dJeqq2tkRnUp4ecO3KwZI07Q84cNsDaCsShhE7UCLSylzd+Lfc+v0Gv3/ed0QQUAAAA4tS8xa/ILX9YLBXlXzc5oKDsLN0vy94u0mWqsgE0D3oqoFWoKHTB2k/kg8079AW/KY5JqvTulS5/unkCUWgAAIA49OMHn5W1n36h1ydfNlYuPvs0cQ/oq59HqmTXHnnrw89k2Zvr9PNxpw+RP995rV4H4kqM91QgqIAWpyLFKmrcHCZflCFzpl1pPQMAAECss+uGJ/XuIbNvnNTkYEIwFVyY/+Ry+WrvfuqKSGitFlSoOHSkTlChqqpS0tI6WM/qF84JAH9EoQEAAGBTvVfV8ARl4d3fi3pAwabqi3fd/4Re//s90+jdirilGvpNFW57P1z0VECLIQoNAAAAf3b9UN1sumnipdbW5vH4C6v0TSjqiUhUrdVToWmJGl255qLGeAAhqCi0PeShOQIKiipTla2oc6lzAgAAIHap/FqK6r0ajt1PTZOJF4/Ry8I11kZl55My85YnZbf1VD8POsY+h33O1qBu51ZV18iRquN1lqPHjsuJuvd7gZjXtJ4KKqCg5FwiMrd5I4uIb0ShAQAAEOzc2xbox+UPzNKPIalAwbRX5JLFi2Xyjrkycc5WuVmtDzL2rTGer75cXvjFxdZxD0qJsXnCvPVy13j9am3ST83zffBIGOeLgAoKfLXvoHzxdbl8WXZA9uw/pJe9ByvkYMVRqa49IYeOVsqx43Vnt0hKSpIeXTpJ+5QkaZeaKoN695CuHTtI//RucnLfdOOxu96W1i7FegUQKD57KgBhamtRaAAAAERIBQiseqB/XXD3O69IiZwiA1UQYbBb3LJZdljVvd07top76JCAgEJLOF5TKx9s2S7/eOVdufOvz0r2Lx+S63/7mPz8b8vkoeffkH+tXi9vfbxFPtu+W3aXH5C9Bw45BhSUEydOSPnBw8ZxKihRJm9v2CoF738sj734tvzyn8/Lf//xcZn4q7/ILfc/KQufe0PeKNwsh45WWa8GWg9BhQQTq12q7Gkjwxr2YPwYzH9Y5ObF6+WFedmycs40WbbT2rejREqGDZH+ar2eHw37HE2dqhIAAAAtTNXv5qzQPQxeeCuwLvjlts3WQT7bdFRhh6x9XeSSCwebG696QL+uuVQeq5bXP9okP//78zqI8NOHn5V/vrxGPtq6XQ5HqZGfnJQkQ/r1kikXnyPzbrlGfvvf1+jtVcePy5Yv98j/vfUfyXliuT7/jx56Wp5etV727D+sjwFaGkGFOKOCArvKD8iajcXyzOr/yIPPvyn3/vPf8sOFi+W63z4m//U/j+qLy1VzFtVZvvWLP8vk3EeN4/5XZsz/p/ziH8/L759+RZ58ba2s/nirbN2117hQ1VhnagFxFIUGAABA8zPrgSIr51h1xDkrjGe+uqCzL2THVqvuOOhGWaSGQDSDnXv3ywP/t1K+M/evkvvkC7Lmk61Seey4tbdpXMYysHdPyR53pvxqerYszblN8mbfLDOvuVwuPGO4DOzV3TwwiBrJ/nHxTvnLv9/UdfzZf3tO/rN1p5CZAS2JoEKMS9guVXEQhQYAAEBrGGn2WFV1RGtReREGDh1p7fcZOtioF655Q1ZedbmMtbZF2/6KozLv6Zflewv+Kc+986EcrYpOIMHfuae5ZdIFGXLDZefKN885TXp17WTtMQ3u09Naq1+tUdd/d+Pnctdfn5aZf31GNu3cY+0BmheJGmOQ6lK15tNief3DTfLh1u1Ri4D6U12qBhkXpzEjTpZzThkstca/gl/+4zlrr4/L5ZLR7oFy0RnD5bKMkdK3RxdrT0OsfxuWc28z50G1k/ConAm3Plw3eKCCDBesHiO/eTlbfvXWXBlr9UiQ25fJohu+kIUXvyEXqO3W8bq3gxWccE7CU6kfAQAAEHuC64h2b1Sz7jfYqjOeElAvHKrqfeJL1DjunWkyX+bp472iUkd0yRuF18n9S1+Xw0cr5YbLx8otV42XbV+XSclXatnrfdx/+Khu1EdK1bmvGX+W/Pg7l0lKsnnfV5W34JlXpcQ439B+6fLSuk/09nAlJyfrIMUPrr5QkozykfhI1Ig22KUqtqLQAAAAaFmD+pi1ypJd1l11NXxhXraUPDxZD3+4VefZsm4oGftm3z7SHBqhAwbmzA+ql6uuKzbAPod9ztBcsmRVP5n75HKjcV8rv735O3J79sXSLiVZRg7sK986d5T8aNKlcv+tU+S5ubfLMmP58x03yF3/9Q359gWZMnroQOnayQyYXJZ5qtx5zQS97qR9aqrcc+2V8pP/muANKKhcaHP+8W95cd0G2bTjq0YHFJTa2lrJf32tzDLq78dqaq2tiEtzVxn/JHPNJQa5ykrLIm4fpvd5yFyhp0KTqC5Vj6x4S177z6dS3Uz/wY89za17JYw/3e3YfUpNb3P5z+63njXsrFMGy/+beKmcOqi+xIuheyrEVhQaAAAArWHe4lRZ9nZKC087XiNzpjkPF7a9/mF3+Z/8alE3+H9+w9W6Dt21Y5q1Nzw1Rv36wJFKSe+ihjJ4dB40NfzYX3q3zpJ74yTJcA+wtogefnzP/y6VT7d/ZW1puknnZ8o9115hPUPcUUGF3NV6tbz0Dv0YSxj+0MpU3oLE7FIVGFSY/Os02VnqkoV3f883A4QVEDCpXgvWPMMG/+ERdsBg3e/GyLuXBAYPnIIKKgp91/1P6Cj0sv9hmh0AAIBY9XFxktzyh/Z6PaCeGGV2/VD5+z3H5Mxh9derj9e0k+/+Jk32HfIlMFdDh1UAwN2vlww9qZcM6Zsuw/r31o/tUlN0r+CGlB06Ijf/4XE5UHHU2mKWO3xAHxl2Um/jsbcM6N1THl6+Wr74eq91RCB1nkjuCKuq+qM/uVFOq/eGIGKaX1BBPDnmo4PWGv7QtKACmmTJqvXyyPI3pWNae/nFDVfLxaOHW3vq2mf8QXeU7pPir/bKNh1oKJPtpeVy6Eil7lI1eugAefC5ldbRgVSXqpmTJ8jEcaOtLWaXqrl5BfLexs+tLZE77/Rhct/N35b2KcnWFiUwqBCrUWgAAAC0LrueeFLvHjL7xklRDyyogML8J5fLV3v3h1U//GBrD/npX49Zz0JTN+769+ruDTa4+/WWkUbDPXho8eHKY7J1V6nkvb5W1m/+wtrasE5GO2HkoH5y1vBBcvrJJ8lfl6+W4t2l1t7Gud6oh/9o0iXWM8QVggpw8vqHn8n/5BckcJeqwKBCLEahAQAAEBt+/GA7WfupeYNK3YS6+OzTmlxfVPXCt4w6t7rZpIw7vVb+fGfD+cpWb0iXX/4jsiG0qtfBb276tlQdr5aNRl37M7Xs/Ep2lu4La5hzWrtUGTNiiA4inOkeqHsTt09N0fu27Nor/3j5HX2DUc361lhZ486Un193pfUMcYWgAoKpaSK/+5tHZd+hI9aWROxSFRhUUGItCg0AAIDYYdcVm0Nj6oZ79neQ636bHNHQY9WrQCVfP1rl3NOhX4+uMsSo6xfv3ivlByvkRFBTrGfXzvLUL74vHdunWlvqUi9RvY7VkOnPjXL8h0xXVB7Tidad/HrGRLni7FOtZ4grBBUQ7IOtO+Snf33GehZa/HapqhtUUGIpCg0AAIDYonq3FqxNlg82J+t8XE1xTFIlPT1JFt58SDKGhx8g8HiS5ffPdJUX3w9vCES4hg/sK/NvuUb6dDenaD9QUSlvFm2WB5a+pp/bbvzmBfKDb42XEyc8cqiySvdmDndKyD37D1v52fbqnhJvfbxFbx/St5f8/Wc36tkrEIcIKiDY6g2fyy//8Zz1rHHip0uVc1BBiZUoNABEIj97rswoEHHPuk2K5/eztgIAYsnKTZ3kWw8Olupal8y8fJ8svO5ra0/D3ixMlRGDukjuk0ny2Q5fD+CmyBw2SH7//cnSKa2dtUVkq1H3/tmj/5J9h329l5UO7dvJk7NvlideXSsF7xdJzy6dZYhRZx+qbjJay6A+PaS7NWWlk6/2HdRDrT/Ztku6dEyTB267Vr4s2y/fOIueCnGJoAKCqQjidb/93wTvUlV/UEGxo9Avrm8vVZVNm0ZTzfJw7shayRpXSw4FAM0rf4m4ZmyRrLy5smK6tQ0AEJOefK+7fO/x/nr94alfyW2X7NfrDVn6dqq8sj5V5t6YIg8sHSTrNm2z9oRP9Ta268wXjh4hOdOv1jf3bOs2b5dfP/5vOVJPnb57544BQ5qDpSQn62N0kOGkdD3U2a2XXvL+Z9tk3tMvyeGjVdI/vbvk3jRJnl21XlKN18y54SqrBMQVggoIpr7x3z/zsrz4/gZrS3TEVpeq0EEF5ZHVPeT2JSfp9cZc6AEAAIBw/HxZH5n/Si+jQe2Rl+7cIRNODewV4EQFFRYtS5U+PZPkvpumyWc798hjBW/pRno4TjYa+gtv+668ZzTuDx6plKmXnxtQ1377k88l54nlYfUyjlSKUSefdH6GXHvJGN0WUIGRq8eOJqgQrwgqINibhZtlxKC+kvtkgXy2Y7e1tWlir0tV6KDCms87yGUPDNFd0m69aL88Mj16M1EAQDjsYQyhZN03Xj67d42USA+ZVThT5mdYO5Si12RYZuA+X5kjJM8zVfw7M3j3ZU0Wz4oz/V5fP3uIRdHsRZK5YL+xYbwUFl8h/m8jbFYvi0Ah3mc9AnppNOIzAEBrUC2d/3pkkDxX2EW6ptXKmllfyBkDQudKsIMKSmpKiky+6CyZeN6Z8sr6jfL8mkI5XBk6uKB6Eaz8w08cb9qt+nir0QZ4QWpqmyegkJqSLBeNHiFTJ4yVzTu+lsdefNvb44GgQuJrraBCkjoweFGctgcviEy50cifa1xMcm7MlrGnDrW2No7qUmVTXar+8MP/CggoqC5VP37oqToBBaXy2HH5wQN5smJtkb7Qlh+qkP9s2S5L3/qP/OHZV+T/PbhYrsl5WK6Z+4j89JGl8ud/vykvrvtENu3co2eueHvD53LL/U/qgILqUvXA7dfKs6vXywebwksQ+eX+VLnmYXOM27dGVchDN4Q/xg0A4sMWyZkdK9e2r2X2sLkOAQVli8xwzZXsfOtpGApmNO54AGhNqsq85PtfyrihR+VQVbJc9eDJsvtA+Lm9qmtq5Jk3P5DbjfqxKuyxu2+Ue667Ut/Qq48KGKgewU7GnTZU7pryDX1TLpoG902X/77qQnn8nptlzIjB8pv8Al2vDzWEAvHJqV1uLw3tt5doH9e0ngp2F4z65NgzATSgoXJsCVLe0nuflUVHt0ufdmlyX/pp8tmJo/LYvm1yuDq8GQtioktVcrJMuiBUlyrnngpV1S65YP5Q+Whnmozse1zWzSmRrh3IgwCglXnv4gfduXfojeAVsqeCEvia+nsqOJQdpCk9FfzfU/29DHyfu8779NOUzwAAram8IlnG/X6ofL63nYwecEzWzNomXdKc66D+PRWCqTrwhWcMlwlnnSojBvaVjz7fKe8b9eANW3ZKeeVRbx6Ff9xzk3Tp0N7MT2Ys6vHz3aU6uXo0dExNldM7dpNzLz5Dxp46RCqPVctrH34qr3+0SQ4b7QMnV7frLXM6NnBDk/abs1gvz6Ia+PE3/MHVwLj5EOM9AjRUji1Bylt69u9k0SVWl6rkFJlc7JKJG2rklXPS5Pm+x+RwcuhGdqt3qfoySaYW1crmv18RokuV83d2/WMD5Zn1XaVbhxM6oDCiL1M/AogBzRJUMPg1zFsnqPCxZLuWiT6tU3JJ/bkl4DOHCirUeR8EFQDEkeK9qTqwUFaRIt84tUJeunOnUa+u26MgVFDBn5qafbR7gIw7zS1n3PK6tEtJkeKuJ2Rr32QpG9BBPnNVyr6uSXKkMvKpKdulpkh6pcjJte2k30GPjNhTI6fsd0m76hOyJfmYfDznbFmzsVj2HaqwXlG/qz+tlTmvNvBeaL85i/XyLK0VVEiyHtFKqmtr5Jkh1XK7aovvOSKPveKSewpTJLOq/i5RrdKlypUm/13SXh5/OVnGFB+T33wjtdFdqn7/ci8dUEhyeeTpH3xJQAFA4nL3ELd6LFjWukMF8j/RAQUVBLgvOKCgTJ8qnqCcCvX7WpYstRLqntY3srwOANCKhvWulhV37JQOqR55fVNn+X6emTA8UmrmhrWflsjC/3tdvn+1yO3fOCFLz0yRo1IrGZ8ekbvWnpA/PX1UXljTRf7+UpIsejdV5v9givx0yhVyx3cuc1x++9/XyKIfXS9/+XeNvPBuF/nrsuPyyzdr5RvrjkiH0qOy+qQTMuvCWvnehBq579JkeeG9orACCkgc6r6yw73lVtWkngqtFQmJ9/KWvv2hLFq20noWyKlL1TsbtsimXWqKyMMt16UqrZ2cOrCfnHeaO/wuVSF6Kry8sbNk/XmQnPC4ZN41pfLzq8qsPQAQA6LdUyFrsuTJMnPduqu/od6eCvXxvZdIeypE8ro6vS3q8PsuGvEZACBWPF/YRf7rkYG6XpqTvVfmTtxr7TGF21MhXElJSZJiLEP69ZKPPjLr8ilJyXJyP197Yc++Q1JRZSaA7NvXJSkdD8mho5X13kiMRDiJGsNtrNZtQTqjPGfRKM+pjNZq/xJUMLR0eaGCCv7sLlVnDu4nY0cNl3apqVK8u1S27iqVsoMV8tmOr3QixiZ3qerSSV/U+vXoJiMG9pFTBvbVU0Nu2LpTNn+1N/wuVfUEFbbsaSdj57nlYGWSXDfmkO6lAAAxpUlBBd9rAocOiHfogZoBIXfjIzESVFCJGx+RBQEndgiMOAkeEkFQAUCcWrgyXX7ybF+9/sRNu+XG8w/odSXaQYVYEU5QYe5ca6UBHOesuY9btUpktZWOISGDCkSNnDmVF25QoY4T7WWUu5ecMqC3sfSRfj27SZcOaXJSejcpPVAhFZWVUnW8VvbsPyg/nlljvShQv57d5cTx9rJzR5IM6t1Tnvq/Q3Ksuka+Kj8oxV+ZvR627Noj+42/bWOVfjpaNr8SGFQ4VJmkAwqb97STswZVybuzt0laaphfMgC0lGYJKpzpa9Qbx2RlbZECx6CCQ9lBIg0qOH+uMIMKTsGP4PM34jMAQKy565l+suiNnpKa7JGX7twhE041Z01ry0EFxLfWCiqQUyGeJB2TjV/s0vPj/uHZV+XuR/4lP/xTnnz713+V2xfmy1/+vVr+8fLbUvD+x9L/9M1y/uVl3sWdWSJ9Tv1UTvR5V/qes0rOvf556XTBX+T79z8pP3pwifx2cYE89cY6nb02koCCExVQUYkZVUChd+daWf6jnQQUAMSXjL5ymrVax4a9ZkM7hIz518ksnVzBCii0tOlnSJZe2SJPe3M79JP5xXONa7RaJlv7Q8i4QorzRpjrJWskM/tjcx0A4tyfrv1arsk8rKc5n/zwQPlkV3trD4DGiHpQ4ZJLRHJy6l/C5fRapyVcTq91WsLl9FqnpSWcOHFCjtfUyJYvv5bNO/fopX36bvm6eoN38XTZLp1679FLxYmv5XClChxEt4GfmWmtWOY810de2thZR3+fu32HDOxRbe0BgHjRR0bpoMB+WTD5NSnS25SvZXaO6gFgcPeW0eaaA6MBn2s1yFvFmXLfrB56rWDG3DpJI/OzzeEZDZo+VfLs6EPBmzLb90UAQNxSPY/zb9mlp5g8VJUsr33WSW9Xs50BCF/Uhz+ohnS4Y0TaqoiHP8Q4/y5Vz67/k1z32EC9/vDUr+S2S1T3XwCIUfUNf1C8+5z5T9VYZ+iAJSBPgdOwgvrUGUZRj5DDIpyGOwTxe319n8F/ekrv8Y34DAAQq3YdSJGl/+kqMyeYCc+LSrrJHX9OvJth078xTm7Nush6hkTUasMfVIHBi+K0PXipqqr0rgO2wp0H5KbHB+j1Wy/aT0ABQHxT0y4WjjeniAyg8gj4AgqhTL/P6fUtxRruYA9hCKCCKMa+sPI0nCkr/IZBTJ79tbkOAHFuQPcab0BBGTWkQvr3arghFU+Sk5PlqnPPsJ4hEfi3y+3Fv30eaqnv9cFLuOXRU6EV/Pu9Ivnjs69azxKH3VPhT69vkZ/+q0guHH5U3r7nC2svAAAAEB/e39xNfv63WqmpOWFtiW8zrjhffnj1hdYzJKpW66lgPaIFDenby1pLLD27muPQfvKNEbLw2q9l2W079XMAAAAgnpw38qDcPaVWT78e7749PlO+/63x1jMg+ggqtIJRQ06S/r3MxFmJIrhLlepC1rtLrfUMAAAAiC/Z51XKwtuvk4G9e1pb4kuH9u3knmuvlLunXCFJ4c6HD0SAoEIrSElKkp9O+YakJFBm2amXj5WT+yRWoAQAAABt2+ih/eWf93xPbr5qvHTukGZtjW0pycnyzTGjJO/n/y2Tzj9TCCeguRFUaCXnjRyio4Z0qQIAAABiV5pRX//vKy+Qp+79vtw26dKY7XHcqUN7uebCs+XJ2TfLr6ZdLX27d7H2AM0raokaEZkN23bL7556Sb7c68s4Gy9Ul6o7vn2ZTHSMgOZajwAAAEC8yrEefU4YzadPvvhK3izcJGs2FstX5QesPS2va6cOMmbEyXJ55qly3qlDJa1d/N+wRP3UhAi5VjOrbiu+9RI1ElSIAVXVNbLkjXXyr9X/kYrKKmtr7FJdqi4/61T5YdZFISKg/kEFOl0BAAAgXvg3j+oGFYLt2LtfCot3yoaSXbLlyz2yq/yAHDtebe2NnuSkJOnVrYuMGNhHRg8dYCwD5fST+5EvoQ0hqIAGHThSKQXrPpHl7xbJ7rL91tbYobpUffOcUfLdi8+WQb0b6vZFTwUAAADEu4aDCsGOVB2XvQcrdE/k7aX7jDp+la7bV1XXylfl+6Wm9oS3RVhVUyvtk5PE5XLpRendo5t079heunfpJL26dpLBfXpKv57d5KSeXaVHZ9pebRlBBYQtMbpUEVQAAABAvGt8UKExak94JDmJngYIT8wGFSoOHanzdqqqKiUtrYP1LDwEF5oPXaqAQP4X1LLS8kZfr0KJ5PoXCuU1DeU1DeU1DeU1TVspjzowgJbiXweuOHTUXIlAtK+n9FSIQ3SpQlsXHFSI5vUq2tc/ynNGec4ozxnlOaM8Z61VHgA0N4Y/oFXQpQqJiKAC5QWjPGeU54zynFGes3DLA4DmFqtBhSTrEQmKgAIAAEDzUR1B1aIq+2jrtsiiSZNk0RbrKdBGEFQAAAAAgKjYLXlTx8iYSYsk3NjClkWTZMwY4zX+y8wCa6+PPu7SSxtVNtASCCoAAAAAQDTtzpOpY8aIQ2zAUZ/T+0j/GUtk/fr1kjtepMe2HJnk3+WhYKZMzdstUlFhbQBiR9SCCnT9agl0qQIAAADixZoc1fNgpoQZW9Cyvjle9nceIbtLtlpbCmRmzl4Zof7Xf7xkWlvR9qi2tsql4JRPoTXRUyHuNFeXKuNiNeYKmTSGoAUAAAAQPWskx7H+7azg1TUie30V8oKZj4pkVsh5S6ZJb2sbEEsIKsSraHap2rJIJo3JMS53+2W3uQUAAABAFPXf9mq9N+9KPy01qvdT9c2/nDXGhg4zZMmiLF1Pf7X7WSKj/ygzR5jHArGGoEKca3qXqi2y6Gd5cqizSJp0lv7mIUBMi9WuXwAAAHX0nyFL1q+X5csX1RsYsG8ALplh1Mb79xAZOlzUoVteWilrCgpkjQ445Mia3WukUN1cDPfOItACXGWlZVGplvfqY85zmZNDXoXmo3IqTBWVo8XR+FxZryKaQdTwh7v+UyMp5yyU5caVrGDmGMn51Nhxuv/xavjDQtkmHWTCkuVEQhE31Dy7AAC0FurA8KlbVx+fu14cqucBnOrqi/eK9J4W/Fqjvj7pVTkibpm1fKYOOqDtiqU6sMtjsNa91BtM721eIEM5cviodOrSUa+rJI0KF9TmFDqo0L//eJnwx7oRUHWh0tli/amIacDFiKAC4lMk16tQKM8Z5TmjPGeU54zynMV7edSB4eNXV6/nZp+T4KBC/fVyggoIrbWupwx/SARN6FKFeuRnG5UEV+gl+3bJttaz863XeeXX2Vc0e5j12mEyu8jcZvPuGzZbgnYFKZLZw8xywzseAAAALWe85Br18nADCsqImcvlxSdftAIKSpYsWv+aLF8ffKPP2G7U9/9GQAExhqBCnFNdqtY34sKiLlq5Q/fLiL05YSd5RLSVyIJ760QhwqACCpmyoMR6qpQskEwCCwAAtBo7xw+9FGDUtGWm0egPP5wAJAaCCvFKdala3/AYLSdZi3Kl95Yesi2H6SPrNX2FUUHwWEue98chK8/eZiwrxltbI1Aww6F3QwPy77UCClmSp85fOEvc6mnJUllCVAEAAABAKyCoEHeaq0tVfd2s0FwKchrXwyD/aatrSdb1Ml09ZsyXXP3PoESWhogqhD+0AgAAxD2GcKLRGvG3sf99NfruGBJZ1IIKHrp+tQC6VCUEt9vqYbBAJgf/MofBPWq0teZTsnGDtQYAANBcGMKZeBrzt8mX7BmMn25Nqq3tcvkSxMYKeioALW6K5M7SYQXjmn2vcXkOR5Fs+Mxa9TN6lFlOKBnzi83hGsXzJcPaBgAAEhRDONEY4f5tdA+FGUJIAU4IKgDNyi0OHQtk9PxlYsYVCmQG3ccAAEAcYQhndMx9YaO4bv2Xfmwt4fxt9N/B6qHgdjd8QwttD0EFoFVkyHzziq1+meXeCH9LNmz076vWdsRq1y8AABIaQzgTVoN/G/csKfR4ZNkU6zngx1Vx6IjHWveqqqqUtLQO1rPwdOrS0VoDEo1KWGR291JdB1foMK7iG4MWuN1QNFuGZS6QEuOnd1ZhsczPMKO8mepgdVG2hiLkZ7skYGia375g3mOz8sRjncze5p5VKMXqJG2ECirk5prrZaXljb5ehRLJ9S8UymsaymsaymsaymuatlJebNeB66vD1LddqbvPvw6TN2WpzND95VV3+RUy2qF+E8hXX/Kvr3jL9KvXtDWqh0Luik8lJ/t0mTtxlLW1JTX+b8PfrXX514ErDh01VyIQ7eupGldVR1lpmbUWmgpIILbJD5/VS/Mp9MxyiwpMmYt7lrGlHnlZ5jHGL1R8yfNkWZ8v+K3nZdmfPcs4ysdpe+Est7nN/zsqnOVxW2XX2RfM/v68Zdrvy+2ZVe+LElNOjvFv27h6qSXa1yvKc0Z5zijPGeU5ozxniVJebKqvDlN/3capfhFYh/Gr+xkvdqzfBPAdbzRcrW1+ZcZdvTB6Zv9fka6nz3vpM2tLS2v834a/W+vyrwM7aa3rH8Mf0ARki51+n5XMRuVGUGP+rMX+qO5Z95nj0+qTMV+WmckVGjb9Pl8eBn0eK1mOe4pMDdFJQUWUE3k8IgAAaEkM4YyWquoT+jEtNVk/xgr+NmgsggqIHNlidVCg2C+zsr+sPE9YQxIy5uc6vr4u40e8uNAKLFhCDJcAAADNz2Xl+ImvadVHS70TSBVtEIcJpwJNXyF5uvJSIgUFDTVAM2T0aeaaU/4Ep7H8aCn8bRAdBBUSXPsU809cVV2rH6Op7WSLnS4rVNDEWJyHjvn2+y/Bx9Y/taPf6xsMEKjAgu8c4UwTyZSSAAAgkK8xWTAjW/znocq/V+WEUk6T0SEqDr7emg2bfr3ds+Fp61z5YlYj3TIlVHdLNDv+NogGggoJzu5OZXevag5kiwUAAIgvDOFsi9TQZfPv7J3RPMK/DeAvakEF49+gXuKr6xciVyQbHPrGjQ7qS6fvknOHHAAAILYwhBMaf5t4otraHitVYyyhpwIAAACQkBjCGcvs4clp1nDl5uf7GwT+jcP/23j/Js7/oNBGEVRAVJEtFgAAAGhYVY0VVIix2R+AxiKogAiRLRatJ1a7fgEAAABtjaustCwq1fJefdL1Y04OeRViSb+fLZc9h4/JVwsmSr9uadbWKFFTRepsPmpKyRUyXfIlWyd3ccuswmIJHoqnku1kqjkos/LoMoWoKd9bbq0BANDyqAMjUjc9vk6eeG+7/PN758pNFwyxtgLhiaU6sMujBsUEUW8wvbd5gQzlyOGj0qlLR72ukjQqXFBjy5A5BbJ931HZ9rurZUh6J2trJFS22EwxYwL2OCzftgD1JHchqIDmEMn1KhTKc0Z5zijPGeU5ozxn8V4edWAE+7h4lxSs/UQ+2LxDdpbut7ZGZlCfHnLuyMGSNe4MOXPYAGsr4Ky1rqcMf0ATkC0WAAAAsM1b/Irc8ofFsuztoiYHFBRVhipLlanKBmIRPRUSXPR6KgCxqa3cCbNRnjPKc0Z5zijPGeU5C7c84McPPitrP/1Cr0++bKxcfPZp4h7QVz+PVMmuPfLWh5/JsjfX6efjTh8if77zWr0OBGut6x9BhThElyrAp61VWinPGeU5ozxnlOeM8pyFWx7aNtWLQPUoOKl3D5l946QmBxOCqeDC/CeXy1d798vkizJkzrQrrT2AT2td/xj+EGfoUhW5/GyXuFwuyc63NvhTSSeNffbieEwdKjGl7zWusF6k8lD4vWbYbGNL+EJ+hjqs9+c9OOjcrmEy2+HkKvdFQ8cAAADApG74qfq00hwBBUWVqcpW1LnUOYFYEbWggj29G70Umo/qUmVfsFSXqoV3f0+WPzCrSYsqQ5WlqLLVORJSfrboiSqceGex8CmY0VDD3Z7pwk/BjAYCCw6JLUsWSGa4gYVQn8FJ/tP6/WVdr5JiOiXVLJEFmYFBA28yTa+6xwAAAMBH9SBWVJ26OQIKNlW2XW+3z4m2RbW1XS7fKIFYQU+FOKF6EagxWqpLlQoE3DTx0qhctFQZqixVpipbnSPReizou/v1tsaNxnaOuc89q1DUaKC8LP1UCp6uP0BQNDvHDCioxJTGazy+F0m9r8q/12rUqyk4jdcUzhKd47JkqSxpoNEe+jM4K9rwmfH/bhk1Wj1ZIkv1udV0n8a5PXaCzRJZ6j15vtxrBRTUDB/OxwAAAMCfGpKsqBwK4dj91DSZePEYvSxcY21Udj4pM295UnYbq/UdY5/DPicQCwgqxAG6VEXK7O5vtsXd4vafpcLm19ieMtWcs2L6fVZjv94AQZEsMV8k7ilTzZkupt9nNcALpL5YRP7TVlAg63rRE2pmzJdcHYsI1WgP4zPUY8NG9R5Pk9HqDRrnKlaBDE+xzA+amuM0fYDB6tmggh66c4Oa3cN8g1KydInxTgAAQGuI5yGcgcMqjSWsc8XXEE57SHJYdfSdT8r8h0VuXrxeXpiXLSvnTJNlO619O0qkZNgQ6R/iGPsc0RgGDUQLQYU4QJeqpjF7ICyTKdZzZ1bjO8BnsqGBHyNvg9zPZw28yK27DgQq2bjBWnMW3mfwly86hmEHMPzpyoc1FCIrT1YEH+AeJXXeYclGCf0OW1asdv0CACDq4ngIpwqGBA6rNDR4LkMiDOFcM9fb08C/t8Hud14x3tkpMnCQ8WSwW9yyWXZYnQ5279gq7qFDQh4DxKIkldExeFGctgcv/seh+dClKlIZMr/YI8XBt+b9bdhoXLSDZIyW0N/0BtGdAAJkyOiQLyoSPRohyOhRDXU9COMzOCnaIHrwg0MAwxwWYfHrjRGw3TZ6lNlrI8b5X5fqWzjOeeE454XjnBeOc144znlpK8c1p/gewmnd4DCYwyr9z5UTsrEf90M4VZ17zgqZMG+9vPBWYG+DL7dttg7y2aYjBjtk7esil1w4OMQxgE991yOn7cFL1I9TU0oGKysts9ZCqzh0xFpDcxpz63y97Da+7gaXTU94vnvOVM9Dm4z1V3M859jrap96fu/q0McYi32+xFLoMX5c1PSpHuPHxicvS28zfoI8vs15HuMnz9jm9hg/Xg7s/YFlGb+Tepvxw25t8ec7v//+wlluvU39Ajasns/gxPpcoY6z3699bu97cc8yzmQpnOUxfpON7f7fT+vLyTFqJsbVSy3Rvl5RnjPKc0Z5zijPGeU5S5Tyosv3m6/qI26n33/vb7RffaXB322n+kjD9YvgOoMSut5jiKiOZTLLbvgzeN+O07nsbf71mmYSXFdf/7epRv36nDrLrFc9nufvVes5nufVsbpOfo7nu3/bbrxutWeWtb3+YxK5ro5w+NeBnbTW9Y/hD/GKLlXNx7rL3zjOPREaYuY9iD4zf4OdG8HZ9OvDuDPh1JMDAAC0CLMHQpwO4Zy+QjV7jGWFbyimN3+T03u2JcoQzpFmTgTVU8Fa7hovMnDoSGu/z9DBg426/Ruy8qrLRQ1ErvcYIEYRVIhHdKmKHm/3fqcf3/p+8EaLPWrB6cfX6Uda/IZHOP34Ov1IR84KcPj9sHoTF4UY+5jhe4N1f3ydfqQBAIA3x090p1VPhCGcwfIl2x7K4RQwsCXAEM7+F16pb9qtfsesX5vDjufKOu++FfKuuiGoEjPKSFHxAvvmn1LfMUCsIqgQh8yeBiIr51g9FeasMJ411NvgC9mx1eqdAJ+MqTJF/+L4xtwVLVlq/kjX+4OXIVPNF/lmRfCO96u/d0DdngH2WEPfzBPRYVYYvDNTGHwBg6XesY/e2SjsgMH06413r/hmsLCP8S8LAACgcfyTQ2ZJXp0uBn6sYInTTZqM+cW690OerrAUyIywZpJofoP69NCPJbv26EcZdKMsmpctJQ9P1nX1W/VMDnN1LwS1b/btI816vL5JuFgmG/VzddPP2xuhnmMU+xz2OYFYQFAhbtGlKjr8pk1ckKnv5tuZg82Mw4o97ZIvg3DG/FyzAa4yH6t9mQvqBCK8vQPsHzy/aSdn6PKsH1f3FPHGFOxpocKcpsmR1bUw4MfYe26VCVmd2zdN5axl862AwXS5zzxIZ472Pya6QQ8AANAsYnIIp39AQSVb9BsO4SAeh3CeO9KsR7/1od8XOX6uXz3dFxRQ+t+wOKD+roz9hW9dcTpGsc9hnxOIBVELKhjtD71Et+sXnNClKsrUmD8z5O2VleepO04vwHRZ4cmz7uxbsvLEE/JFqiujnY3YojIvF9uN+ugIyJjsZXajDPyY6oe9WPx7Vqo7AIWBb7DOMQAAIAbExRBONR2kXw8FT0N1ivgcwpk17gz9uOzNdb7eCs1Ala3OodjnRNui2tp2qsZYQk+FOECXqmgwG9Wqy5xju9+bTMjpGBVAUNuDfwjt7dYSVLDdRS9wu+996CU4oGC/D8dAQwOfwWKe1/lHe/oKv3PXc4z3fYc4BgAAtLI4GMKZn20lVdQ3KUL3UDDF5xDOM4cNkMkXmWeZ/+TyZgksqDJV2Yo6lzonECsIKsQBulQBAAAgUEZsD+Esmi05VtvfOJl3+KW5+N5PgDgewjln2pUy7vQh8tXe/XLX/U/I4y+sikpwQZWhylJlqrLVOdS5gFhCUCEO0KUKCBSrXb8AAGhRMTyE09trohHifQjnn++81ttjQdWpVSBg0k8XNGlRZdj1c1W2OgcQa1xlpWVRqZb36pOuH3NyyKvQHOYtfkWWvV0kJ/XuIbNvnCTuAX2tPdFhd6lSEVB1wSICinhRvrfcWgMAoOVRB0awj4t3ScHaT+SDzTtkZ+l+a2tk1JBk1YNY3fBjyAP8xVId2OVRA6eDqDeY3tu8QIZy5PBR6dSlo153ufQDF9Rm9OMHn5W1n36h1ydfNlYuPvu0JgcXVDBBDXmwI6CqSxURUMSTSK5XoVCeM8pzRnnOKM8Z5TmL9/KoAyNSmb95VYq+PCgf/fIKyRzU3doKRK61rqcEFeKM3WOhOdBDAfGorVRabZTnjPKcUZ4zynNGec4aKo86MCJFUAHR1lrXU3IqxBnV6P/7PdN0ACAaMzSoMlRZqkwCCgAAAI1j5/ghoIDGqqo+oR/TUpP1IxCvCCrEITWeSgUAlv3PD+SDR2aFXAacOV7We4bKvbdNc9yvylBlMUYLAAAAaDlV1bX6MS2VJhniG/+CAQAAAABARKIWVKDrFwAAAAAAzUO1tVUeFzuXS6ygp0KCs8do2WO2AAAAAACIFoIKCc4eo2WP2QIAAAAAIFoIKgCIO7Ha9QsAACBc3kSNKcz+gPjmqjh0xGOte1VVVUpaWgfrWXjCmb8SLe+mx9fJE+9tl39+71y56YIh1lYgvqmgQm6uuV5WWt7o61UokVz/QqG8pqG8pqG8pqG8pmkr5VEHRqS63/W8HKyslv1/+o5075hqbQXq518Hrjh01FyJQLSvpy6PwVr3Kt9bLum9061n9Tty+CgX0hhHUAGJKDioEM3rVbSvf5TnjPKcUZ4zynNGec5aqzygsQgqoLH868B1W/Gtd/1j+AMAAAAAAIgIQYUEZ4/RIlEjAABA9Nk5ftQdRABoiwgqJDjvlJI1TCkJAAAAAIguggoAAAAAACAiUQsq0PULAAAAAMLjnVIylfu8CI9qa6sEjU5JGlsT/4IBAAAAoIUds4Yn28OVgXhFUAEAAAAAAESEoAKAuBOrXb8AAACAtsZVVloWlWp5rz7p+jEnh7wKseTnyz6W+a9slnnXjJafX3WqtRVIHOV7y601AABaHnVgRMp167/0o+fR7+pHoDFiqQ7s8hisdS/1BtN7mxfIUI4cPiqdunTU6ypJo8IFNbbMfWGj5K74VHKyT5e5E0dZW4HEEcn1KhTKc0Z5zijPGeU5ozxn8V4edWBEiqACoq21rqcMfwAAAACAFmTP/NA+heYY4h//igEAAIAI2Tl+6KWAxqiqZuYHJA6CCgAAAAAAICIEFQAAAAAAQESiFlSg61dssrtU2eO2AAAAAADxR7W1VXJYO0FsrKCnQoLzBRXMcVsAAAAAAEQLQQUAAAAAABARggoA4k6sdv0CAAAIhz00OY0pJZEAXBWHjnisda+qqkpJS+tgPQtPpy4drTXEkoUrt8pPni2UmZefIguvy7S2AvFNBRVyc831stLyRl+vQonk+hcK5TUN5TUN5TUN5TVNWymPOjAi8UX5ERn6ixfl5J4d5Yt5WdZWIDT/OnDFoaPmSgSifT11eQzWulf53nJJ751uPavfkcNHuZDGOIIKSETBQYVoXq+iff2jPGeU54zynFGeM8pz1lrlAY1BUAGR8K8D123Ft971j/42AAAAAAAgIgQVEpw9TospJQEAAKLPzvGj7iACQFtEUCHBeaeUrCGoAAAAAACILoIKAAAAANCCqqpP6Ef7BiAQz6IWVKDrFwAAAAA0zDulZCr3eBE+1dZWCRqdkjS2Jv4VAwAAAACAiBBUAAAAAAAAESGoACDuxGrXLwAAAKCtcZWVlkWlWt6rT7p+zMkhr0IsefqDnXLD39bKdWMGydM/GGdtBRJH+d5yaw0AgJZHHRiRKNx5QM767WuSMbCbFP7qm9ZWIHyxVAd2eQzWupd6g+m9zQtkKEcOH5VOXTrqdZWkUeGCGlueL9wl1zz8rnw7o788///GW1uBxBHJ9SoUynNGec4ozxnlOaM8Z/FeHnVgRIKgAppDa11PGf4AAAAAAC3IN/sDU0oi/hFUAAAAACJk5/ihlwIao6r6hH5MSyGogPhHUAEAAAAAAESEoAIAAAAAAIhI1IIKdP2KTfY4LXvcFgAAAAAg/qi2tkoOayeIjRX0VEhw9jgte9wWAAAAAADRQlABAAAAAFpQVY09+wPNMcQ//hUDiDux2vULAAAgHEwpiUTiqjh0xGOte1VVVUpaWgfrWXg6delorSGWrNq8Vy57YJVcckpvWfWzS62tQHxTQYXcXHO9rLS80derUCK5/oVCeU1DeU1DeU1DeU3TVsqjDoxIPF+4S655+F35dkZ/ef7/jbe2AqH514ErDh01VyIQ7eupy2Ow1r3K95ZLeu9061n9jhw+yoU0xhFUQCIKDipE83oV7esf5TmjPGeU54zynFGes9YqD2gMggqIhH8duG4rvvWufwx/AAAAAAAAESGokODs5C92MhgAAABEj53jR91BBIC2iKBCgrOTv9jJYAAAAAAAiBaCCgAAAADQgqqqT+hHZn9AIohaUIGuXwAAAADQMN+UktzjRfhUW1slaHRK0tia+FcMAAAAAAAiQlABMS8/2yUul0uy860Nfux95pItDocEHeOSYbOLrD1hyM82X+d08qLZMsyvXKdjmu3cDopmD/M71zAJ61TWOXynyJdsbxkNlVMks4eZxzXqcwEAAABIGAQVEpwvUaM5bivuGI3eGQXWegCzQRu4r0BmBDSCnY4RKVmQGWYj2GhgO5/cDChkLpAS66lWMCOgXBVQaJZzO1ABhcwF/u+mRBZkNhxYyH9anSNLrp9uPOggyQzjW/QXopz8eyXglC0oVrt+AQAAAG2Nq6y0LCrV8l590vVjTg55FWLJF+VHZOgvXpSTe3aUL+ZlWVvjQ3CjPCvPIytU41dRd9j1TrfMKiyW+Rl+x2fliUcd6G34+47xNb6zJM+zQuzi6vCWb7HL1FSwIlM3qO335C3XPUsKi+dLhr7jbzbQ3bMKpdg4ed1j6hHy3E585zLfj+/92ed2Zh0n5vsxngS9P185dd+D75xK6PM0r/K95dYaAAAtjzowIvH4u1/IzU98IN87/2R5/Kax1lYgfDFVB/Y4UIGGcFQcOmKt2fcMPZ6cHGsDYsK2sgqP/PBZz8k/X2FtiQeFnlluUcEuY3F73Na60WD2KpzlNve7ZxlHWwpnedz6NVkedWg4xzjxvs5Y3G5r3f/kxiuzGijDd4zbM8s+eV6WVW5Tzu3AqVx7m/9nr8N6j7p833fu9r5hv/cT9B7yssxj7cX/NS0tkutVKJTnjPKcUZ4zynNGec7ivTzjZ1Av1IHRGA+v+lzX0W/NW29tAZquta6nDH9AzFJ3vz2eZTLFeh6+z2RDkUjG/GLj9R7x+PUKKFqy1Byy4B4lo/WWeqi79cZrlzmdvGiDcQaDUcYGv5wJgcMaRssot3oskaVLzO3mUAND1vX195BQQp07FKfPVLJRNlirdeQ/bfZu0GMfMmR+sfFdGef19TgokiVL9bdlFO1XctFsyVEvdGdJlv6MAAAAaIyqGqaUROIgqIAYZDZwQ3Wnzxh9mrlSslSsNrsvYFAfozE8WfflN9rDU6bWO/xAByNCDU/YsNE8T8kCWWD3/zcE5ktQnyFP1IATtV0FHczRGrOkMMRQhgbP7aBogw5xBBo9Shpq75uvc4t/vMBf0ezJVs4Et0yZ6gs0zJ5sDSlZdp+MsrYCANBWmf0UGPoAoO0iqID4NP0+mWX1BFiQafYUCExUGMQ/saLRsF8WpfH/WXnm3f1C881IyYJ7xTeRgtkTIIBfEKS1bdiovo3TZLTDV+Gf+NE9a5nOR6HYgQb/bQAAAADaLoIKiFOqJ0ChFViwZGXpngF1+AcUVILGRvYEqMPbC8CaNcGQMXWKtc0ceqETGVrJFu3Ag0pEYAZBnKe+jCq7N0W98sWc+KHuUIyAmSSy8vx6jOTLvXp7luQSUQAAAABgiFpQga5fsSktxZ5SslY/JhZfHgC93DfKzHUQcPfdaNz79VAoDDXjQ1NkjDbO6sfbS8EXeJDp11tBDzvwEB2+oSAO+RPqyx1h5YUIyJWg5Gf79VAoDJzxwfuZ1NSdqneINTOEQQ/xGDbbfAIAAAAg6lRb26iG6yWW0FMhwdnJX+xkMAlD9T7QDdthYqcx8OZU8N59V1Mi2tMeRqGHgi1jqkzR3RIKJMc6edHsHOs8VkDD25uhQJ62uyU4DYeIBm+wwncuOylkvbkjdE8G/1wJBvWd2lNZBvRQAAAAAABnBBUQn7wN++CcClmSZ99dz7/Xeyfdd3fdXuwhCPmSHRScaFiGzM81m/F2Ekbf3f37zICG9/0ZZ55hndPbYM+18hFEcm7V9h9mlpdtRyumy33WOBD7XOapgoIGfsygQ2A+hfx77SEihoIZ5jnsRZ1r+gpfrxC9+Iaf6F4NxfPNJwAAAAjJ7kWclkpzDPGPf8WIUw45FVRAwW94g3cKx+agGtiFs6zeCCbVsPbd3TeHZug0Cn7qDCmIEjVrhJ0s0uSWWYXF9SRTLBJz4gf/oRFWjoU4EatdvwAAAMLhCyowpSTin6vi0BGPte5VVVUpaWkdrGfh6dSlo7WGWHLgaLX0+Mnz0q1DqhxY+B1rKxDfVFAhN9dcLystb/T1KpRIrn+hUF7TUF7TUF7TUF7TtJXyqAMjEnNf2Ci5Kz6VnOzTZe7E6E/SnZ9t9lxVCcOD72fZ+0yBN+VsgccE3zxrQH622UM3K6/uzbSABOoGh2MiOndwufV8rmABCcpD3pTzY30+33ereh/bQ66V0Df3Zg8z85I16ju1+NeBKw4dNVciEO3rqerGXEdZaZm1FpoKSCC27T9y3CM/fNbTbeZz1hYg/uXkeKzUsNG/XlGeM8pzRnnOKM8Z5TlLlPKAxshZ/omuo6vHqMvLUjeN9WI0fP0Uema5ze2Bi9szq9A6pN5jxGM0gq1jQsnzZNmvCTy5UfQsj9uvPKdy87Lq7g8+pg6/zxu4ZBnvpn6Fs9wOr/H/LpyZ79Equ57PVG85fu81vO8zkH8d2ElrXf8Y/gAAAAAACUDd5ffm8QrmzTem7qSbObLMobolsuBeK1dX0RJZGnSMPcS2ZMG9Vk6yeqg7+AF37P0VyezJZk8Ce7p1b7lLlxh7Fd9wXHUX3/mYurxDnlWvB+M1Rsvdm8TcTqpelz1Vuv1+7GHVJbJ0SahkZ4HDiL2J4vUsc4HleL9TL9+U84mGoEKCs5O/JOaUkgAAAK3LzvHDtOpoXapbvS9Zt9tsiwco0q1hg3uK2Lm8p99n5QgreFoHDHyNZN8xGVOnmMeEoBOJWw1mt9PJZYNs1AX7pltXOcF0EKDODG2+ZOMhp07XfIGILN887nJ9UF6zOupM/+6XiD1EAMP7OU4bbbyiSJaYERi/GdcyZKqdrT1IfnZ9AZf4R1AhwdnJX44l2pSSAAAAQJxqrkSN5h3+ZTLFeh6+z2SD0ZJ2auj7Ag3+Sb4dWHfrlzmdvGiDcQaDUcYG1ZtCzS5mLMMCehKMllG6Pe7rLeDrhWBPGR9suqzQPQT8c0f4Ag2n+U915sTpM9UbwDBYwQgzgGEmZlfn9uVG8As0jPIruWi25KgXurMkq6EITRwiqAAAAAAALaiq2rzhF72ggtnADZX4z3fXf6nYPfy9AYP6GI3hyfbU6d678XXpYESdHgd+Nmw0z1OyQBb43a5X07P7AgvqM5hDF+xp23XnBxWsCE74GIKvR4CvV0Qwb68Nf6NHNdwjwxz7IP7xAn9Fsyd7h5j4pna3h364Zday+yT6aTlbX9SCCnT9AgAAAIAYNf0+33j/TLOngG/mAwf+MyoYDftljZypoD51cir452rwDkvw4xcEaYj/zBFZeQ3P/tBYG8yxD+LUAcJ/Jgn3rGXe2R/sQIP/tkiptrbx1eklltBTAQAAAAASnuoJYCcStGRlWUkNgwRM0ZgleaF6IYTD2wvAL6eCN1eDOfRCDVuwExnagQc11YIZBMn2BR7q4R9QUMNAGtG5wWT3pqiXNazCYShGwNSUWXl+PUbshJBZkhuloEwsIqgAAAAAAG2CLw+AXu4bZeY6CLj7bjTu/XooFHqif8dfyxhtnNVPneSJhunXW0EPO/DgTDXqfT0UQg8DUUImgKwvd4SVFyIgV4KSn+3XQ6FQPP7RDO9nKpAZLtU7JNMaHqF6aGSKa9hs80mcI6jQBrRPMf/MzACBRBGrXb8AAABilup9oBu2w8ROY+DNqeC9+65mkfDlJGhyDwVbxlQxJ0XwTfNYNDvHOo8V0PD2ZiiQp+1uCU7DIYIFNerD6qHgDVb4zmUnhaw3d4TuyeCfK8GgvlNfNKPBYEaicpWVlkWlWt6rT7p+zMkhr0Ks6X7X83Kwslr2/+k70r1jqrUVSAzle8utNQAAWh51YETirmcKZdEbW+VP12bKXRNOsbZGiwoMmHfE1V17XyPbtz1QluTZvRGMBro9NWRd9nH5ku1SgQe3zCosrpMnwDsUwGhkB961dy5bBQLMxnh978/gLSv43CFeY7DLdnpPAUMWvJw/k2IOr/D7rrzbrCfBgj+/5nu/vs8dmZiqA3scqEBDOCoOHbHW7HuGHk9OjrUBMaPbzOc88sNnPfuPHLe2AIkjkutVKJTnjPKcUZ4zynNGec7ivTzqwIjErXnrdf384VWfW1uiqdAzyy3qxrEnK8/a5OXbZy5ZHv9D8rL89wUv9rF5niz93O2ZVag3BCic5TaPr3tytdPj9ivTaFhbO3yC30PgMUHnDioveLFfW9978m7Xi/PnMVnfm3uWsWaz30s9i9Pn9/v+nT57U7XW9ZThDwAAAADQgqpqzGHJ0ZtS0p8vb0KdG+XBORWC8iVMX+G/L3ixj50uK/Rz5zv6enpJtb/uydVOKfYr0+lOffB7CDwm6NxB5QUv9mvre0/e7Xpx/jwm63sLGA5iv5d6FqfP7/f9N6WXQqwhqAAAAABEyGgb6IWhDwDaKoIKAAAAAAAgIgQVAAAAAABARKIWVKDrV+xKY0pJAAAAAIhrqq3tcplLLKGnQhtgJ4CxE8IAAAAAaD1V1Sf0Y/MkagRaFkEFAAAAAGhBdg/itFSaY4h//CsGEHditesXAABo2z4u3iXzFr8ik3/9mJx724J6l10fr5Exrm1y3yOLHferRZWhylJlArHMVXHoiMda96qqqpS0tA7Ws/B06tLRWkOsGTKnQLbvOyrbfne1DEnvZG0F4pcKKuTmmutlpeWNvl6FEsn1LxTKaxrKaxrKaxrKa5q2Uh51YNhUAGDZ20XWs+iafFGGzJl2pfUMbZV/Hbji0FFzJQLRvp66PAZr3at8b7mk9063ntXvyOGjXEjjAEEFJJrgoEI0r1fRvv5RnjPKc0Z5zijPGeU5a63y0Lb9+MFnZe2nX+j1yZeNlYvPPk3cA/rq55Eq2bVH3vrwM1n25jr9fNzpQ+TPd16r19E2+deB67biW+/6x/CHNsCbqNFKCAMAAAAgOlQPBRVQOKl3D1l49/fkpomXNjmgoKgyVFmqTFW2Ooc6FxBrCCq0AXYCGKaUBAAAiC47x4+6g4i2R+U7sIc8zL5xUlSCCcFUmapsRZ2LHAuINQQVAAAAACACBWs/0Y9qyENzBBRsqmx1DsU+JxArCCrEqXAzy6oldVehzi77g/v+13E/mWUBAACAxvtg8w79qHIohGP3U9Nk4sVj9LJwjbVR2fmkzLzlSdltrNZ3jH0O+5xArIhaUIGuXy1HBQBu+cNi3f1pZ+l+a2vkVBmqLFUm47QAAACA8Nh18bB6Kex8UuY/LHLz4vXywrxsWTlnmizbae3bUSIlw4ZI/xDH2OeIRv0f8Um1tVWCRqckja2JngpxRmWWtcdtqS5QKnHL8gdmNWlRZdjdqVTZ6hwAAAAAIrBmrrengX9vg93vvCIlcooMHGQ8GewWt2yWHVang907top76JCQxwCxiqBCHFG9CMgsCwAAAMQoNYxhzgqZMG+9vPBWYG+DL7dttg7y2aYjBjtk7esil1w4OMQxQOwiqBAnyCwL+MRq1y8AANC2mT0NRFbOsXoqzFlhPGuot8EXsmOr1TsBiEOustKyqFTLe/VJ1485OeRVaA6q54Bq6KthCqpXQXN6/IVVsuzNdTL5ogyZM+1KaysQm8r3lltrAAC0POrAbZtKeq6oIcWKSrJ4q86JsFgmBwUJzH2nyK/emitjVY+GaQ/K0Hnr5S6ZKxNXXy4v/OLi+o8Zb5Yx6afm+T54xDwf2q6YqgN7HKhAQzgqDh2x1ux7hh5PTo61AVF1za/+1zPm1vmed7Z87dltfO0NLev/NtVzzjnn6GXWq377Nj3h+e71T3jWhzhGnUOdS50TiHWRXK9CoTxnlOeM8pxRnjPKcxbv5VEHbttUnVktAXVto2793b9t18/N+naO53m/fbre/WqOsX2q56FN5jH28fUdY5dvnw9w0lrXU4Y/xAkyywIAAACxZVCfHvqxZNce/SiDbpRFRt265OHJeviD2WthruiU6Ma+2bePNIdG6LwLZm8GlUdh6ODB+uX1HaPY57DPCcQKggrxjMyyAAAArcruq8DQh7bp3JFmMOCtDz/Tj9r4uWaSRr0EDoPof8Ni7z57SMPYX/jWFadjFPsc9jmBWEFQIV6RWRYAAABoVVnjztCPKh+Zt7dCM1Blq3Mo9jmBWEFQIU6RWRYAAABoXWcOG6CTmyvzn1zeLIEFVaYqW1HnUucEYknUggp0/WoNI82cCFb3KLuL1MChI639Pnqc1po3ZOVVl+sxXfUeAwAAACBsara0cacPka/27pe77n9Cz6QWjeCCKkOVpcpUZatzMDNb26ba2i6XucQSeirEqf4XXqnzIKx+x+yaoKafmXjxXFGdosx9K+RdlWNBJWaUkaLiBXY+BaW+YwAAAAA0zp/vvNbbY0ENU1CBADX9Y1MWVYY95EGVrc4BxCKCCnGCzLIAAABA7FK9CP5+zzQdAIhGPVqVocpSZdJDAbHMpeaVtNa9yveWS3rvdOtZ/Y4cPiqdunS0nqE5zVv8iix7u0gmXzZWbpp4qbW1eahuVioqqi5iXMAQi1TXr9xcc72sNLrXq2hf/yjPGeU5ozxnlOeM8py1VnlAYwyZUyDb9x2Vbb+7Woakd7K2AqH514HrtuJb7/rnqjh0pM7bqaqqlLS0Dtaz8HCxbV4fF++SW/6wWK8vvPt74h7QV69Hm+qloLpaKSoqSiIYxKLgoEJjr1ehRHL9C4XymobymobymobymqatlEcdGJEgqIBI+NeBKw4dNVciEO3rKT0V4ojdW+Gk3j1k9o2Toh5YUAEFlVlWJYKhlwJiGT0VKC8Y5TmjPGeU54zynIVbHtAYBBUQiVjtqUBOhTiiGvlklgUAAAAAxAqCCnGGzLIAAACxw57eTd1BBMJVVV2rH9NSkvUjEM8IKsQh1YuAzLIAAABAfKqqOaEf01IJKiD+EVSIUyqBogoALPufH8gHj8wKuYwad6ms9wyVH914reN+VYYqi6SMAAAAAIDGiFpQga5fAAAAAAA0D9XWVgkanZI0tiZ6KgAAAAAAgIgQVAAAAAAAABEhqNAG2Fll7SyzQLyL1a5fAAAA4fDO/pBKcwzxz1VWWhaVanmvPun6MSeHvAqx5q5nCmXRG1vlT9dmyl0TTrG2AomhfG+5tQYAQMujDoxIuG79l370PPpd/Qg0VizVgV0eg7Xupd5gem/zAhnKkcNHpVOXjnpdJWlUuKDGHoIKSGSRXK9CoTxnlOeM8pxRnjPKcxbv5VEHRiQIKqA5tNb1lP42AAAAAAAgIgQVAAAAgAjZOX7opYDGUD0U6KWAREFQAQAAAAAARISgQhtgZ5Vl9gcAAAAAQDRFLVEjYtfcFzZK7opPJSf7dJk7cZS1FUgMbSURmI3ynFGeM8pzRnnOKM9ZuOWhbao6Xi3fm/d32XP4iH5u5e1sMaopV3vCoxOGJrmSvIlD69MuJVkmnH2qzLr2KmsL4okaZpWba67XbcW33vWPngoAAAAA0Eibtu+W//qfR2XX/kNSU1Orl+omLMeO18iRymNSYSzqsaHlYMVR6dWjm/zznpvk7skTpGen9nK06rgcr66pW37tCUlOcsk1F54tP7j6Ivn+n/KsTwE0HUEFAAAAAGiE1UVb5O6//1sOHD6qewvUJ9Q+2wnrmAtHD5MX7rtDXntglrx0/yx52Vjsx1eClhf/cI+8+MefyT9+eqMMO6mXTBp/ljzz69vkh1dfKKnJSVJ74oQuU9/OdrmkQ2qyXH/pOfLdS86WOx5cInv2HTL3A1FAUKENUEMeVHZZhj4gUaiuX6p7X0Nd/AAAAKJJBRHmPv5vue+pl+Xg4Qpjixp64KuQqCDCCaNBr3oHVB47bqwbz61t+tFhUa9RS2Hxl3LXX56R2+9/XH70gLncYT3ay/8z9t1+/z9k4TMvSufkJOnasb1UV1fLv9//RO56ZKn86+0PpUYNhzDfjNHaS5K0lGS54dJzZeIFZ8lPH35WdpQdkiTqUIgiV8WhI3XCZ1VVlZKW1sF6Fh7GmgFoKf7jycpKyxt9vQolkutfKJTXNJTXNJTXNJTXNG2lPOrAbcfu8gPyu6deko1ffKWDBh7PCR1QUAGBmtoTctxo3CcbjfiTeveSs4YNkIsyT5f/fLpJ3vl4qx6ukGTsC0U1ymqNstRQBf9AhT+z54NLzhs1XB+3d98Bfd6jx9SighhWDwXFOF+3Du3lv6+8QMaNGib3LX5RNhjvXZ2pl/Hv9vn/+ZF5HOKGfx244tBRcyUC0b6ekqgRQNwJDiq0pURglOeM8pxRnjPKc0Z5zsItD4lt47YvZd6zr8v2r/fq3gUuHQIwAwpJLpeMGzlYpl51ifTs2E5SU1Kka8c06Ww06Gtqa3WOBPM1oW398mv51d+fk4PHanT+g1A6tG8nx3W+hBqzQ4JxuB2IUP9/wpUknVOT5YdZF8lZI06WeU+/Ipt3fq3fr3rnvbp2kn8TVIg7sZqokaBCHCG7LGAiqEB5wSjPGeU5ozxnlOcs3PKQmMoOHZElb7wvqz7eKmUHj0htbY1qQKkWvN6vhjeo1e6d0uSGy8+T6d8Yp7d/+PlOeX1dkVQdOy7Jycl6WyjVtbWya99h+Uw3/H0BAt1QMzaoJJDHa2okxSgrxahjq/12VTywV4NHTkiyDm7cnn2RnNSnt/x95Xr5aOMms6eEKtx4TDf+TRNUiD+xGlQgp0KcILssAABA7FHtObWoyj4Sy4fFX8rvl7woBe9vkD0HDkttTbXZkPdrxNsN+gNHquSpN9bJ9+9/Uu555BmZ99SL8tJ/PpOVH38urxVu8S6vfLRZlq/bKMve/ViWvedblr+/Ud7f9IUcOmrUz6uOyeGjVXK40liOVur6+mVjzpC8n98i3774HGmXkqRv9inBAYVao3nXq3N7+dG3L5X0Hj3k4RfflU+Lt5vHmdEK61ggeuipEAdUdtkF/7dSDhw8bDxT0VDni4H6U9a3z6a6XqkuWheMcsvd3/2mtO/QUWrV9cXYp/4hqMfgElTvhJoTNdIxKUm6dGint6muXE+++p7kvb5WjtXU6vFjduRTZZe97tJz5JqLzpE7//yUHKo8Li/8hkgoooeeCpQXjPKcUZ4zynNGec4aKs+ueuXkEFhIJK+t/0T+771PZMPnO/Tf2L+erdbtBpSqVyuqGnzCc0Jqa09ISnKSVec26sd+FWu1r3e3TnLNBRmSOXyg8dwuxWT/W1LUGVwel6jhDWntkmXgSf2kT7cuRr27Rkp2l8mvn1guu/bu0+9JLep4jydJ+nfrKD+Z8g1xpbSTJ978j3xWssMMhvgXbqzTUyE+0VMBjUZ2WQAAAKDlqJthjxa8LQ8XvCNbdn6tt6m6s6KSMR6tMnv6tjMquF07dtT1bnO/eeMu1agLq0a7uuGmqu2qGmwvZt6DJNn01T55bcM2eX3jFwHLa5/4LRu+kFWbdkpat55y9qmnSPcuXeT/3v5I/vj0y/K3F9+W/YePBLQLajwuGdyzk/zsu9+QamP98ZUfyObtu6Sm+njAcUBziFpQQf9HYyxEaKNDZZf95RP/ltWfFOuLl8e4YOkopHHRUkGEI5VVcux4taR37y5XnnuG/P62G+TbF4yWnkbDv71xxeqQnOS4dDQudGnGY43x2t1l+2X712Wyc0+57PBbtnuXMuP5fjlyvEZ+/s/lct1vH5Pr7vubPPz8G/Jx8U7dLUu9H/2+jAtn1w7t5bbsi+WbY8+QuU+8IMXGBVNnxbU+EwAAABCryg4ckr8XrJbn3y2Sr/cflmPHjsmJE+bNO7X06tZZrv/G+fKXO6fKz6+/SiqrKnVPguClxm9d5UGwZ2RQdeZDRv35g03b5MW1H8vL7ze0FMm/V70nv/znv+Vnjzwrj7+yRl78YKO89fEW3T5Q5alF3eQb1ruLzLr2m1J5wiV5qz6UzTt2y3Hj/TU04wTii2prqxiWFeeKGVEb/mD8e9bo+tV0ZJcFQvPv+sXwB2eU54zynFGeM8pzRnmBqAMnhjWfFhsN/U/k/c+Kpcqo954w6tWqLtuvV0+58tzRcsbgPpKWmiLugX2lZ6cOcuSEyJsfblb9iL3/BpwkGzu/2LtfXnnvQ/m6fL+uy5s16IZbhaq+3bl9iuw7cky/FzWsQg85Nrbbp1S9Jwaf1EfumXyZHDleLXlv/Ec+310q1ccqjXPVE1AwXs/wh8TUWtdTQlcxRGWXffD5N+RXeQWyo3SfGRxQrXjrsqFW1bZPd+6RjcXb5eS+6dI/vZts2VUqC5askN89+W/5y7LX5OHnXpe/hlgWLX1FHnvxHTmicyGYEU4dJFCLQSWBVNFPlYRRnU/NeVtrXFjVRVBdzFTE03yNCiio7LLtZeY1lxkX2ZPkgRfelU+/2KUvfOoN28EHAAAAIBb9a/UH8siKt2Tt1h1SebzG20NYVXbV7A37Dh6UQb26yZiRQ3SP4N8/9ZLcl/eCrN+8TT7cXCL/2VT/8oGxbNr+pe7poOrSqtwkowxVn25oUQ5V1egZ1dLapeqZH3Qd3Niu69pJKTKgXx+Zfd2VOqnjk6+vk2IVUFA9FOoLKBhU60LV8YFooadCjFDZZZe89p5s2L5bKo5Vq0wu5sXMj/mXMv9c3Tt1kJPSu0uPTu3li70HdHctc0ob32vUxeJYteqCVWvHJTRVjopqqj+aPlwVaTyqfwrqMvWt8zNl+qXnyPPvb5DX1n0sx2tOeC+CPmZ22d6d0+T2iZdIj65d5e+vrZPPv/xKjh+rMk+njjcWIqFoTm3lTpiN8pxRnjPKc0Z5zijPWUPl2dUj6sDx6Zk31sk/jTr4kWozN4J/U1xVkdW29kaj/tTB/eSUgf2k/GCFvLL+E6Oe7fvbh2QcpwIEKteC2UshOpJS28lZJ/eRm751kew/cEDyXjfq4Xv2SfWxY96AhBP9GZOTJd2owz//P3dYW5EoWut66iorLVP/vTRZrz7mm+KC2nhklwUipy6KAAC0FurA8UnVjN/4aJM8vfJ9EaM+3T41RW/3q8V6qbq2OW26OeNZh3ap1p7oUXV+JfAmnjP1fgYZ/+6uv2SMfFW+T/66fLV8ua9C54BQvSDqZbzOlZwsaanJ8rMpV+i8bIhfsVQHpqdCK1LZZZ964315Zf1GPbftsWPHja3mn0NN43i8ulo/9uiUJmlpHeTQkcAsr4o62vHid+KE9OrWRU4dMkDSu3fR0dT6qH8C7VJSZMI5o+Tsk/vI8RMiL6z5SDZt3yX7KiqlqMTssqWo81cbZQ3t2VnumjxBqk64ZMlbhbJl51fOyWAIKqCZRTvSSnnOKM8Z5TmjPGeU5yzey6MOHJ927t0vb2/YKu2NBnb3zh0lrZ0KKpg5zFqDXccP5/y1Rj3/nBFDpLq6Vn726DNSvOeAHA+jh4LL2K9mc1O9jCeOy7D2IJG01vWUoEIrUcMV8l5/X179aLMcPFJp/CFO6ECAGq6g9O/VQy7OPFUuOHWIVBw5KvOeflnnNggVvVR/yBTjYqEuKOrPqpI4qouHmW+2fupYNVbrwtOHGhcpFew4Jtt2l8q+w0d0XgXdXcu6SKnssu4+XeVn/3WFHDx+QvJXfSiff/m1VB+rcr6QEVRAM2srlVYb5TmjPGeU54zynFGes4bKow4cnx55fqWUVlRKx/apxt/QrDu3JjNTgqrPN/w+1M3Cb409Qw4frZQHlr4uX+8/pCr01t669Gcz6ukd09rLjCvOlxsvP9fag0TTWtdTggqtgOyyQPS0lUqrjfKcUZ4zynNGec4oz1m45SG+/OiBx2VT6WE95aOqx4bTmI8VSckpct340XL6ySfJw8tXy659B3VySUdGvV7t6dCunVxx9qky87tXSoeU+ns0IL611vWPf1EtjOyyAAAAQOtql5oiJ44flxPVx6W2+ph+jJdFvV+VAyJUD2bFrMO7jM+aLOeNGCQ3XHo2AQU0C/5VtSCVXfbvL78rX5QekGPHqyU5JcVYUvWSktpODlcdl5UfbZYFS1fKwudXye+ffV2WvVskr36wUQrWFsqKBpYX3v1I1n7yuRw5Vq3LU+WqSGY4izo2NdV8L8H7Ujt0knNPGSi/nvYtOXz4kCxeuU6Kv9rrnEPBj7qQqeBGcujrHQAAANDyEr6OqqaDT5YxpwyWG785Xk4+qa+1HYiuqAUVVCBMLQx9qEvdp1/50SZ5/cPPZFCfnpIxpJ9kDj1JMvwW9fwsd385dVAfqa6ulqLPv9DZXM8bebKcf+rJMs54bHAxjhs7YpAux7/s4OVM4/xqcdoXvIw2jrvqrFNk5jUT5OiRCvn7S2ukZM9+qVa9IUIEFNQ/BjVdjcoue/vES62NAAAAAJqbnh3OqIuPHNhXpl8+Tk49+SRrD+KZamurDioNdFJpcVHLqYD6kV2W7LJoPm1tzC7lOaM8Z5TnjPKcUZ6zcMtDfPnJn/Ol8Is9OqdCQ8MIYo2aFvLmK8bJ8AF95K//XlUnp4JK/t4uLU36dusst0+6VC4dPdzag3inggq5uea6U1Outa5/DH9oAQVrPtQJDbd9XSaFxV/Ke59uM5YSWfvZttZZjPPrxWlf0PL+pu3G+y6Xz3Z+JQePHpcalcymgYCCcYB0SGsv1084n4ACAAAA0EJUXVwNsR7cu4fcfNV4AgpoEfRUaAFklwWiyz9KW1batu6EUZ4zynNGec4ozxnlOQu3PMSXROypoHsLG/sGpPeQ6ZeeJRPHn229AokiVnsquCoOHanzdqqqKiUtrYP1LDxcbOunL1rbjItWbeJ1r7Lpi1iSSgaTJBeMHCK3Zl9EMhg0m+CgQmOvV6FEcv0LhfKahvKahvKahvKapq2URx04PiVaUEFNUW9UxqVfeje5acJYmXhBpnU0Eol/Hbji0FFzJQLRvp7SU6EFJPKYLZv6V5SaqrLLDpLvX3URyWDQrOipQHnBKM8Z5TmjPGeU5yzc8hBfEqV+/rBRP99ZfkBtlR5du8r3vzlWvj2egEKiitWeCvRNR5ORXRYAAABoeeatviTp3rWzzLhirFx9PgEFtDyCCmgSnV22fXvpn95NbpgwTjJPGWztAQAASHzqJrda1B1EoEVYd6hra808Ch06tJdrzz9dss4eKam07tAK+GeHiKmLGNllAQAAEG9UPTael5raWjleo/IoiEwYNUSuHpcpnTpGb4w80BgEFRARdTFT47n6p/eQ714wWq465zRrDwAAABDbkpOSdILxeFySk1wqliC7yg/IhDNPke9nXSq9unc1PxjQCqIWVKDrV9uhAgoqu2zfHl1l+mXnMF0NAAAA4srwwf1l7PCBcsGIwXG1nDtsgJw9pK+0S06Say44U26ddJn06t7Z+lRIdKqtrZpiaoklUZv9wU6ampNDYCEY2WWB6PLPfMvsD84ozxnlOaM8Z5TnjPICUQcGECta63rK8AeEjeyyAAAAAAB/BBUQGtllEYNitesXAAAA0Na4ykrLolIt79XH7D5B16+67nowL36HPyQly43fGCsn9+0lf3/5HTl7aH/5ftbFJINBzFDdtwAAaC3UgQG0hliqA5NToQXc/dBiKdoen0EFlZBx+uXn6qkjq48dk/+6+FySwSCmRHtMGOU5ozxnlOeM8pxRnrN4L486MIBY0VrXU4IKLeDh5W/Kzq/2yokTJ+IqqFBdWyu1xnvOPGWITBqfKT26EExA7GkrlVYb5TmjPGeU54zynFGes4bKow7cBm1ZJJN+JvLH5TNlhLUJiAWtdT0lqAAgrrWVSquN8pxRnjPKc0Z5zijPWbjloQ1RQYWpebLbWO0/Y4ksnxlmaKFgpozJWWM9MfXPzhZZVyI1KefIwnqCFAUzx8jivSK9p62XRRJUxvhcWb8oy3qCtq61rn+k2gMAAACACOzOmypjxsyUAut5/QpkZs6n0t/434wl62X9enNZPneqTEgpk141K+WlLeq4LbJo0tVy49WTZJH1/PNtfSTlQH9xn2Lse7W7ZI2fIUvW58p4Y2+PNTkys+GTA82KoAIAAAAARGyN5IwZI2Miat2PkOFDS6Wm+24p2Wo83fKSrNxdKltKd8tKHWXYKiW7u0tN6VAZPmKEzFyUK7mLVI+GLPmmiir0F9n2uY4+AK0makEFe3o3hj4AAAAAaHPW5MiYMWPq6TmQJYuWZBuPuyVv6piA405x95cDKX10cGDLSyulz/ge0qXHeOmz8iXZsuVz2dYnRQ70d8sp5uGmLYvk0TX9jeLGy63hDr9A3FNtbZV2INbS9NFTAQAAAACior9se3WROPYdGDFTluthD0tkRn+Roj+MkUmLtsiIb02QlLJeUrNysSxe2Uc6bTtdLjt9m3Tqs1IWL14pNb3KJGXCt/zyLWyRRT/bIEP7D5W71i8SMiqgtRFUiHUqEcykei5MAAAAAGKCStq4fv1yWa6HJ4QyQmbeOl4qUvvLbtUbYcRwGVpaI913fyTv9ukk24Z+U37xzaGy5mhnKXh3t3SvKZWhw30lFsz8mZT0KRX3HwkoIDYQVIgHu/Nk6hgzkhk2lV1Wje3yWybNnSuTrr5Rrg4RpFDZZadODey2pbZdMamR5weaUax2/QIAAG3ReMlVSRcbMQxhy+fbRDpUigwdbuVH2GLUz3fL/sI1MvSbWSJZ35TxW4y6937j2C3jRW3Sr1s0Sf6yv0a2jf6jMOoBscJVcehInSklq6oqJS2tg/UsPEy100z8pqwxqYtWQ1HJApk5ZqFskw4yYclyvwuOyiZ7l/ynJkXOWai2h/N8quRZJ2/UlDlAM1JBhdxcc72stLzR16tQIrn+hUJ5TUN5TUN5TUN5TdNWyqMO3Ab51c/H566XsGZ0rFOnV/zq9Xq6yU+NldO929SNPXOTPW1kYN3ci2kl2wz/OnDFoaPmSgSifT11eQzWuhfz9sYQxwuQIeTFo76ggnlx8s5ze4pZdqmxvY8OGGw1XrdY9kpvmWZczE5ZNEmmPndIpKZCOvcU6TqBoAJiQ3BQoS3Ng055zijPGeU5ozxnlOcs3PLQhqj6+V+Gy3Ia8mhh/nXguq341rv+MfwhXrVAdtkRM5fL+lWrJPcckVTz5QAAAEDbphIuElAAvAgqxLWWyC4LAACA+tg5ftQdRABoiwgqxKmWyi4LAAAAAEB9CCrEnZbLLgsAAAAAQChRCyrQ9av5qeyy6xuc+cGgksf4TSU5VaWI3X265Fpjv7K+Od74/x7GYgcQVKDB3vTNhssHAAAAALQo1dZWCRqdkjS2JnoqxAM108P6MKerUbz5FPwXv2BE1iLj+WsB27IWGce8ZiwOJ1H7XlveuN4RAAAAAJy5bv2XXoBEQFAh1pFdFgAAAEgo7VPMZlhVda1+BOIZQQUAcSdWu34BAACEIy01WT9WVZ/Qj0A8c5WVlkWlWt6rT7p+zMkhrwKAllO+t9xaAwCg5VEHhr+Pi3dJwdpP5IPNO2Rn6X5ra2QG9ekh544cLFnjzpAzhw2wtgKmWKoDuzwGa91LvcH03uYFMpQjh49Kpy4d9bpK0qhwQQXQkiK5XoVCec4ozxnlOaM8Z5TnLN7Low4M27zFr8iyt4usZ9E1+aIMmTPtSusZ4Ky1rqcMfwAAAACAJvjxg896AwqTLxsrC+/+nix/YFaTFlWGKktRZatzALGIoEIbMPeFjTq7rHoEAABA9Ng5fuil0HapHgprP/1CTurdQwcCbpp4qbgH9LX2Rk6VocpSZaqy1TnUuYBYQ1ChDbCzytoJYQAAAAA0ncqhYPdQmH3jpKgEE4KpMlXZijqXOicQSwgqtAF2VlmCCgAAAED0qKSMihqm0BwBBZsq2x4KYZ8TiBVRCyrQ9atlqQil6v40+dePybm3LQi5rHnzVRnj2iaL//Wc435VhiqLqCcAAAAQPjXLg3Lx2afpx4bsfmqaTLx4jF4WrrE2KjuflJm3PCm7raf6edAx9jnsc6LtUW1tlRzWThAbK+ipEIdUAOCWPyzW3Z+aOlWNospQZakyGacFAAAAhMeui4fVS2HnkzL/YZGbF6+XF+Zly8o502TZTmvfjhIpGTZE+qt1FVCY9qCU6B0+9jmiUf8HoomgQpwhsywAAAAQw9bM9fZG8O+RsPudV6RETpGBg4wng93ils2yw+p0sHvHVnEPHVJvQAGIZQQV4ojqRUBmWSB2u34BAIA2TgUF5qyQCfPWywtvBfZI+HLbZusgn206qrBD1r4ucsmFg82NVz2gXwfEC1fFoSMea92rqqpS0tI6WM/C06lLR2sNzUHlO1DDExTV+I9GMMFJya49ctf9T+j1v98zTc4cNkCvA7FEBRVyc831stLyRl+vQonk+hcK5TUN5TUN5TUN5TVNWymPOnDbpvKTKar3r6JyJtz6cN3ggQoyXLB6jPzm5Wz51VtzZazVI0FuXyaLbvhCFl78hlygtlvH694OVnDirvHWNsOkn5rn++AR83xoW/zrwBWHjporEYj29dTlMVjrXuV7yyW9d7r1rH5HDh/lQtpCVM8BNTRBDVNQvQqa0+MvrJJlb66TyRdlyJxpV1pbgdgRHFSI5vUq2tc/ynNGec4ozxnlOaM8Z61VHtom56CCypuwWCarYQ5+zH2nBAQVhqqggcyViasvlxd+cbF1pIGgAhz414HrtuJb7/rH8Ic4QWZZAAAAILb1v/BKnSth9TtmPdqsk8+Vdd59K+RdVe9WiRllpAwebBxj51MA4hRBhThBZlkAAIDYY+f4UXcQ0fYM6tNDP6ohxNqgG2WRUf8ueXiyvrln9lqwhjUY+2bfPtKom4+xeiGYvRlUroWhKrrQAPsc9jmBWEFQIZ6RWRYAAABoNeeONIMBb/3/9u4FPor63vv4b0U0QFEhgBYVJSjUCw2vFntsaa3KqZcnSJVDrQai9KV9qscqVGuolzbG1lrwpRCtj7VqRQJILeVRJD5e6qVV1FrqAa1aReKFijZsRENucttn/jP/2d0k/yyb2dmd2d3P+7ymOzO7+U5OTceZ3/7/v3n5DfvVNuk6p0mjvXSdBjHy3KXx99xpDV+5uusUB5vOSN7vHsM9JhAWFBXylSoK0FkWAAAACEzF8cfar6ofWXy0QhaobHUMxT0mEBa+FRUY+pVbzmgEcYZPqZEKV622thIjEszelfc36BEMamhWcjMYAAAAAH2inpSmmpsr8xavykphQWWqbEUdi6ezFS91r60aNJqaNAaJkQp5bZzTN0EPoXKHSB0yepx+P8Gep7XmKXnytJMTj6oBAAAAkBH1tLTjjz5cPtyy1X40u3qSmh/FBZWhslSmylbH4MlsCCOKCnmKzrIAAABAONx22dnxEQtqmoIqBKjHP2ayqAx3yoPKVscAwoiiQp6gsyyQENahXwAAoHipUQT3XDnDLgD4cR2tMlSWymSEAsIsEm2K+nJZPmxEqf1aU0NfhWy4celjsvLZ9TLtpK/IrDNO1HuzQw2zUlVRdRLjBIawa97SrNcAAMg9roHhxaxFL8l9L7wn955/nMz6GiOJ0XdhugaOxCx6PU79gqXDnRNkKm3b2mXQ4IH2umrSqHBCzY5XNn4gF9y01F5feMX5Unbwgfa639QoBTXUSlFVURrBIOy8nK9SIc+MPDPyzMgzI88s3/O4BoYXFBWQDUGdT5n+kCfoLAsAAAAUhpK9+9mvnTt22a9APqOokEfoLAsAABAubo8fRimgL0r666LCzt32K5DPmP6Qh9z+CtlAHwXkm2IZXusiz4w8M/LMyDMjzyzdPKAv5vx+ndQ9tUEWnD1B5kw+Uu8FMhPU+Y+RCnlI3fTTWRYAAAAAEDTfigoM/cot1e9AFQBWXv99+dtvqlMuW4YcI2tjo+UPN1xifF9lqCx6KAAAAADZV9LfuQ2jpwL6Qt1rqxkC7iyBsGCkAgAAAADkULynAkUFFACKCkXAPVm5XWYBAAAAAPADRYUi4HaVdSuiQL4L69AvAACAdDBSAYUk0trS1uPpD52dHVJSMkBvpYeuuOF1wJwH5dOOHbJ1wZlywMD+ei+Qv1RRobbWWY82Nff5fJWKl/NfKuRlhrzMkJcZ8jJTLHlcA8OLhU9ukB89sE5mn3ykLPzuBL0XSC35Gri1pd1Z8cDv86lvj5REeFFUQKHpXlQopkeWkWdGnhl5ZuSZkWeWbh7QFxQV4EXyNXDPu/jgzn9MfygC8Z4KusssAAAAAAB+4C6zCHxGTwUAAICscHv8qG8QgXSV7O3chtFTAYWAogIAAAAA5FC8UeNOigrIfxQVCpxb/dxXV0MBAAAAAPCLb3eaDP0Kp84dTH0AAAAAgHyn7rVVg0ZTk8Yg8fU1AAAAAORQfPqD/gIQyGcUFQAAAAAgh9ynstGoEYWAokKBiz9Okp4KKCBhHfoFAAAAFJtItCnqy2X5sBGl9mtNDX0VwuTd5jYZffUjctjQgfLujRV6L1A4mrc06zUAAHKPa2B48eC6D+SsO56Xb5ePlAf/e5LeC6QvTNfAkZhFr8epX7B0uHOCTKVtW7sMGjzQXldNGhVOqOFCUQGFzsv5KhXyzMgzI8+MPDPyzPI9j2tgePHoax/J6bc+K6cefaA8OvsEvRfITFDnU8bEAwAAAEAOlexNo0YUDooKBY5HSgIAAGSP2+OHUQoAihVFhQIXb9SoO8wCAAAAAOAX7jQBAAAAIIfij5TcySMlkf98Kyow9AsAAAAA9sydmuyOKgbSoe61VXNYt0FsWDBSocAlpj/QUwEAAAAA4C+KCgUu3qhRd5gFAAAAAMAvFBUA5J2wDv0CAABIR2L6A4+URP6LtLa0xfR6XGdnh5SUDNBb6Rk0eKBeQ5g88+YWOemWZ+SbRw6XZ358ot4L5DdVVKitddajTc19Pl+l4uX8lwp5mSEvM+RlhrzMFEse18Dw4t3mNhl99SNy2NCB8u6NFXovkFryNXBrS7uz4oHf59NIzKLX45q3NEvp8FK91bu2be2cSEPu0dc+ktNvfVZOPfpAeXT2CXovkN+6FxX8PF/5ff4jz4w8M/LMyDMjzyyoPKAvKCrAi+Rr4J538cGd/5j+UOBo1AgAAAAAyBaKCgAAAIBHbo8f9Q0ikC63iTqPlEQhoKgAAAAAADkUb9S4k0aNyH8UFQpc/JGSTH8AAAAAAPjMt6ICQ7/CKdFTgfoRAAAAAOQrda+tGjSamjQGiTtNAAAAAMgh9ws/eiqgEFBUAAAAAIAccqcmf0ZPBRQAigoFLj79QXeYBQpBWId+AQAAAMUmEm2K+nJZPmxEqf1aU0NfhTBZ+OQG+dED62T2yUfKwu9O0HuBwtG8pVmvAQCQe1wDw6uSS/5oj1To+PU0mqqjz8J0DRyJWfR6nPoFS4c7J8hU2ra1y6DBA+111aRR4YQaLhQVUOi8nK9SIc+MPDPyzMgzI88s3/O4BoZXB8x5UD7t2CFbF5wpBwzsr/cC3gV1PmX6AwAAAAAA8ISiQoHjkZIAAADZ4/b4YZQCgGLFnWaBSxQVmKcFAAAAhEXJ3s6tGI+VRL6jqAAAAAAAOeZ+6de5k6IC8ptvRQWGfoUTIxUAAACA3Hhl4wdy49LHZNrP7pLjLpqfchm+9TWZGHlHvnPN7cb33UVlqUyVjeKm7rVVc1i3QWxYMFKhwHXu2G2/UlQAAAAAskfd+F9w01JZ+ex62dS0Ve/NnMpSmSpbHQMIG98eKYlwmvP7dVL31AZZcPYEmTP5SL0XKBzF8sgyF3lm5JmRZ0aeGXlm6eahuF166wPy4uvv2uvTTvqKnPClo6Ts4APt7Uw1fvBv+cvLb8jKp1+yt48/+nC57bKz7XUUFzVSobbWWe95Fx/c+Y+RCgDyTliHfgEAgOKjRg+ogsLnhw+RhVecL7POONG3goKislSmylbHUMdixALCJNLa0tajxtHZ2SElJQP0Vnqo4IbTRUv+Lnc+2yh3VH5JLvrmGL0XyG/JVdpoU3Ofz1epeDn/pUJeZsjLDHmZIS8zxZLHNXBxU30O1LQERd30+1lMMFGjFubcfJ+9fs+VM+SLYw6211Eckq+BW1vanRUP/D6fMv2hwM1a9JLc98J7cu/5x8msrx2u9wL5rXtRoZiG15JnRp4ZeWbkmZFnlm4eipMaMaD6HagpD2o0QS4sevgZeyrEtG+Uy1UzTtV7UQyY/gBf9KWjrFpee/EZu6vs7YsfML6vFjrKAgAAAH33tzfft19VD4W0bFoss3/5l8T6CRNl9v1ORneb758hZ1jvq2XhGr3T4h7LPTYQNIoKeUTd+NNRFgAAIDzcHj/qG0QUH/eaPL1pD+/LyutulUa9ldKmxTLvDpHvLV0rD984RZ68aoas3OS85R7Lz/sBIBMUFfKE6iirbvwVNbxKzdladUu1L4vKUpmKOoY6FgAAAAAP1lwXH2GQGGXwvqy8YJrcu8FaffRyOeOCxbJZ7Vb+dFXi83oUw+bnHpNGOVIOOdTaGFUmZfKmvM/ABIQURYU8oEYP0FEWAAAACDk1peGq1TL5xrXy8F+SRxmMkmn3rJTvqSe8n3aLPHzPeTLS+QlpHPMD+7N3XjxO5NE77REJ/3rnTf1uwjtUFRBSvhUVGPqVHarPgTtCYe55U7PaUVZlq2Mo6pj0WAAAAADS54wwEHnyKj3y4KrV1lbqUQZlo51m6iNHqYoD0Dt1r60aNJqaNAaJkQoh1/DiP+xXNT0hmwUFlzqGOxXCPTYAAACAdI1zeiGokQp6mTNJv5WmQ0aP02sJo0eN0mtAuFBUCDk6ygIAAAD5YeTXT7X7H/z5Oec62rnevk5esrfS5+SslufVNfr7jdIo44SaAsKKokLI0VEW6CmsQ78AAEBxOXTEEPu18YN/269y6HlSZ11bN94xzf7i7gf29fZ14owDHiWHjLFeujdqNLFy5l48zplGYfdoWCrTVNNGi3ss99hA0CLRpqgvl+XDRpTarzU19FXw03EXzbdf1VMa4lRHWXt+lkM1gpkzKamjrHLkZXKn9c9h3oxbrfVx0rhBN3tRjWGuPsGumv7gjiPlp3+xTnJqRIP1udF2jvOxqZc7x/3bb5KOC4RQ85ZmvQYAQO5xDVzcVHNz1YtMTR9Wjc9zYdHDz8jKp1+Sad8ol6tmnKr3otiE6Ro4ErPo9Tj1C5YOd06QqbRta5dBgwfa66pJo8IJ1V89igrdCwB2gWGDfG+pql7qwsIYp3DgfraxSyFBVUuXyiH1E+Xnj07pUlSQi1dK3bnOuCqKCsgXXs5XqZBnRp4ZeWbkmZFnlu95XAMXN9XY/IKbltrr6klq2e6BpkYpzLn5Pnv9nitnyBfHHGyvA0pQ51OmP+QZOsoCAAAA4aBu6tWIAWXe4lWJaRBZoLLVMRR1TAoKCAuKCnmJjrIAAABh4Pb4YZRC8VJTEI4/+nD5cMtWexSBmp7gZ3FBZalMla2OoY7FtAeECUWFPENHWQAAACBcbrvs7PiIBdXvQBUA1HRiPxaVpTIVdQx1LCBMKCqEHB1lAQAAgPBTowdUnwN14+/ndbTKUpkqmxEKCCPfGjUiO+goC6RWLI3AXOSZkWdGnhl5ZuSZpZsH9NWc36+Tuqc2yIKzJ8icyfQ+w56paVa1tc666dHqQZ3/GKkQchXHH2u/qpt8P+dm9UYdwx1e5R4bAAAAAAATigohR0dZAAAAoPCU9HduxTp37LJfgXxFUSEP0FEW6EoN/VLPBXefDQ4AAJBvSvr3s18pKiDfRVpb2nrMxujs7JCSkgF6Kz3MNcs+t79CNtFHAfkgeT5ZtKm5z+erVLyc/1IhLzPkZYa8zJCXmWLJ4xoYQK4kXwO3trQ7Kx74fT6lUWOeeWXjB9Lw4j/kb2++L5uatuq9mVEdZY8bN8ruocCUB+SD7kWFYmoERp4ZeWbkmZFnRp5ZunkAkG1hbdRIUaHAHTDnQfm0Y4dsXXCmHDCwv94L5DeKCuR1R54ZeWbkmZFnlm4eEITPtm+XfffZR2+h0FFUQCAoKqAQUVQgrzvyzMgzI8+MPLM95bn9fWpqnH8/oXidN+930vhhVG9l317WH9+w/QfKL87/thw9+hC9F4UsrEUFGjUWOLfxi9tdFgAAAIB/tu/cJWdff2dOCwrKhDGHyIKLz5UL65bqPUAwuNMscJ/t3G2/ut1lAQAAAPijc/sO+dbcm2Xzx5/qPbnx/dO+KnPPOU3On3+P7HIu94HA+FZUcB/vxrCvcInd+R17AQAAAOCfLZ+2yOk/qZNdOX4i5E9nVsj5p31DvnP93dK5Y7d1E6bfQMFT99pq2oNp6kOQfOupwHwyALmSPJ+Mngpm5JmRZ0aeGXlm5HXFNXDx+ujfW2THzl1yyMgD9Z7si1h/cGp0xEk/XigxcYYoxKy/wb/WzbXXUdyCOp9SVEBKdJRFGFFUIK878szIMyPPjDyzPeVxDVycGlt2yazrbtZbufPDqZNlyOBB8tP7HtJ7KCogIajzKUWFPEJHWaCnYrlodZFnRp4ZeWbkmZFntqc8roGLkyoqnPczp6gwqKS/1FSeIsd9YYy97Rc1DuHDpqjctOIpWf/uR/a+S888SYYOHkxRAUZBnU8j0aaoLzMyho1wfilOqP5THWVn/vLunDeA+dIRh8oV3zlVzr3xLnl+IScqhJM6KQIAEBSugYuTW1Tot9de8udbZsvSx1+QVS++rt/1z9iRQ+XnF54tP7vnD/LUq+/YRYVh++8n19z7oP4ERYViFaZrYEYqhJyaM3XqVQty3gBGdZT9z4nHyowb75aOHbvlr7dyokI4+V1pJc+MPDPyzMgzI88s3/O4Bi5OblFh6leOkjO+cox8/9cr9Dv+O3TYfnL/tRfK1+fc0mOkgvrz201RAVpQ51MeKRlidJQFAAAAwmf7xx/ar+NHHyx/fr3RXs+WTdEW6z+5bUN48dcZYrs6P5PFV8yUZxdcmbPluYXV8s0vjpWvXnaT7NYdZQEAAGCmxvyqhVEKxWXAvk4j83322Ve25+QbwMQx3NEx+WOJTLF+afXkCvMyxfpE8ufGyNz19g5ZMkV/ZorzCbP1MneM8znTx+IZahkz1/p0d4nfL+Vh0CuKCiGlhlSdPe9emXHzYvnmFTflbHngmb/Ls69ujD+iBgAAAADy0xJZ3qBXlcYVsqxnVQEZoqgQYrut+3q1DNinv/xqVoU8+avLfF2esJbFl1fK+FEHxY9FMQEAAABANlTUx0S19Ou6rJaZ+n3fLVkudk2hrEIqytRKo6ygquA734oKatiXWhj65S/VUfaxX/1Q3vmoWWb+apGvy3nWcs+jz8vtc86Tk8eP1ke0/ij2ookCAAAAgPy2RA9TKJt+g9ww3a4qSOOKZYYpEPlB3WtHrFs1tYQJIxVCrmLiOHnj7U1yxyMvygcft/i+PP2Pd+XcX/xGrr/gLH1ENWIh8UAQygsAAAAA8o879aFMpleWS3nldGvNwhQI31FUCCk6ygIAAAAoJA1VSU0T9ZK15oju1Ac5SsaXWy/lleIMVmAKhN+4kwwpOsoCvQvr0C8AAACEgzv1QSrO0T0byqWyAKZAhFGktaUtMdZd6+zskJKSAXorPYMGD9Rr8MN7HzbJjHmLpLaqQl57/1/ywJ+z+2f/3MIfydfnLJBLzzxJSvcbLNcuesjer+7Zdlv/8de6ufY2EAaqqFBb66xHm5r7fL5Kxcv5LxXyMkNeZsjLDHmZKZY8roGLU1iu1ZVY6K/V1SMbq+xRA6pR4+peuzK6nyuT6nUbZV65tWdKRKqcH5RYrz+oHik5QeY3JucnjmmWOEb6v1/wkq+BW1vanRUP/D6fRmKq5WY3zVuapXR4qd7qXdu2dk6kWUJRAehd96KCn+crv89/5JmRZ0aeGXlm5JkFlYfiEuS1+tDBg+Wn9yUVFazlr7dSVOhSVFgyRSL2D6YQz8zPokLPu/jgzn9MfwAAAACAPGK4n0SSxNSHev3YysSyrtqZAiENyyVb7RyKDUUFAAAAwCO3x4/6BhHFY5/+/fVa7qnHv5u+pS5oDVXW/856NnmMGLs8uk99EKk4p+ewg/hTIKRBlnf7cVMjSbVkrZlkgaCoAAAAAAB5wn38e9JT4JEs/tSHMjlmvL3SVfwpEGqwAtUCP1BUAAAAAIA++PywIfZrR0eHDP9cLnpu7K1fu1KFhWMOPUhvhdVMWa2nHqTuV+B+zm2gaO1Z3XXqQo/FDiyXeRudbXtz5mr9fiKnq8TnnZ9P/H69LWHusxAGvhUVIgz9KkgUQAEAAACze5/4q5z7rW/IgfsP0nv81b/fXnLj+afJpg8+0Hu6mnHyRPndlefrLRQ6da8ds27Q1BImjFRADz3+SKksAAAAADb1zbXr35+2yTV3PyB/rL1Enls4W55b8CNfl6dv/rHs2hWTmTcv10dMuP68KTL7rMnS3rldPvr4E3nnwyZ58/0P5aXX35YXXtsgT7/8mjz+0ivyr0879U8A2eHbIyXVKAWlpobRCn4I+jE11973kP04SUX9gYT7MTUoNsmP0+GRkmbkmZFnRp4ZeWbkdcU1cHHZvmOnTL2mTh6df4V17Txf73XsP6BE+vVzr6D9sa3jM9mxa7feEvtafcQB+8lhI4Za+3fK9xfUy+7E2z3020vkzh+dJ4NK9pVDhztTNlC4gjqfMlIhpOgoC/QurEO/AABA4dqxc5ec+pOF0rp9l709/vCRXZZRBw6Vg4cN8XX5wqEHdTnGgUP2k5MmjJPGD6Nywc2pCwpDBw2Q386pkgtvXizbOhitgOyJRJuivlyWDxvhVDqo0vrjw+hW+c4v7gpspMI1ix6y9+8VYaQCwk1VWgEACArXwMWh1bopP+2qW/WWyIKLzraLCEGof+IFefD51PcG5YcfJD88c7Jcetv90rlrtyyqniVHjByh30UhCNM1MNMfQkwNqfrJ9JNlW0eH3N7wgt6bHc8tvNI63k09igrKsaMOogEMQsvv4VvkmZFnRp4ZeWbkmeV7HtfAha9p66dSdePd0qZHKITdt79aLpdNmyzfuvIWcQcy3H/NhXLo8GCKIMidoM6nTH8IOTrKAgAAAMH4oPkT+e7P78qbgsI5J06U2dMmy+Qf3xwvKADZxkiFEFL/SCLWf6Fu85dvHnu43HDh2dbaZ9abPteBIv3lmbXrpWbZE7Jr9+4uIxVUR9nTjjvG7ijb0t4uHZ9tl+07dsmnrW2yy/odO61tNbfs6HFj5ZD9S3QgkFvF8k2Yizwz8szIMyPPjDyzdPNQeJo+2SbTr7sjb27O55x5opz2H1+Uqdf+WrYnNXdUGKlQHII6/1FUCBk6ygJ9U2wXreSZkWdGnhl5ZuSZpZuHwqS+dNvLvdEJMfWFpHLS5bfIjt077fVkD13/31K63+f0FgpVUOc/igohor71P2XuAvsm/7mF1XLxwiX6ndz57knHyYnl4+RPf39Drqt/WO81Ux1lb/rBdLnglnr57eVVcvSoz+t3gNwptotW8szIMyPPjDwz8szSzUNh2bRlq5x7w116K/y++/VymTB2tFz1uwf1noSLKr4hM7/1Vb2FQhbU+c+3ogIyQ0dZwJtiu2glz4w8M/LMyDMjzyzdPBSW95s+lspf3q23wq+3osIZx4+XueecrreQ79SX97W1znrPu/jgzn8UFUKAjrKZWiJTIlXSoLekol5iq2fqDcv6uTJmwnxp1Jtl1etk47xyvaWsl7ljJsh89wPdf777+0ZlMmuWyKJFvX+o63ETmRX1MVGHWzIlIlXx/ycMyqoltnGe3oCr2C5ayTMjz4w8M/LMyDNLNw+FJR+LCuOPGCXXLkqMNP7qFw6Xmy5SfdlQKMJaVODpDwGjo2wWNCyX5Ikj65etiBcUjNYvkxXJH+j2835pnD9BxsxNPQIEAAAAwXN7FATh55WnyuLLZ6a1XHTa8fbPqIbqn7R22OvKQUMHU1BAzlBUCJDqKHvuz38rO1J1QgwR1VF21qlfk9N+sjDRRCOU3pBX4/fu62VZl4pBT/GiQ0WFVNh7GmR5l6pCuczbGLOfyqGWddVlzu6yalmn98ViG2WOO/ujy/6uP9O4Ypn1G5nNXN31Z5J/TqmoZZSCS1Vp1Z9gqP8MAQBA3hq47z56Lfd2xXanvezW31Z3fLZDtm5rs9f3K+kvK352sb0O5EKktaWtx8CJzs4OKSkZoLfSw7Awb+go64fE9IeysjJpbGxMmmrgvldmvddovZd6GsI5y/UUhB5TIBLWzx0jE9QPqOLBxnkST+plv23JFIk4wVIfWy0zDdMfeoj/jCXF71OMkod+RZua+3y+SsXL+S8V8jJDXmbIywx5mSmWPK6BC9O/P9km/3XdHXor/I4b/XkZeWCpPPziP+QP13xfDuSpbAUp+Rq4taXdWfHA7/MpPRUCQkdZPyWKChXV1fLG/PnS6N6EuzfmFdVS/cZ8+ya+S1Eh3m9B3+z3uPnvyUtRId4vIf7enooKSX0iTEWKIte9qFBMc3bJMyPPjDwz8szIM0s3D4Xlo49bZPr1v9Fb4VdWOliO+0KZTD3lBDlsf/9uFhEuYe2pQFEhIHSU9VNSUaG+XqRKrTtFgfH6Rr+sul6mr6jqUVToWQhIzjKPINhjUSGFRGaqokLiPevdXosbxYyiAnndkWdGnhl5ZuSZpZuHwtKxfYfcoB+vXrJPfznmsJFy1glftreDph5D33/vfvL0y6/LXY88a93R7SXHHjxMrp51lv4EChVFBXRBR1k/dS0EuFMYKurXyTE16ua8TKrXrRSZ5tyoJ4oKiZv35EJDfFRBL1MOPBUVeow26L2okPwUiN4KG8WOogJ53ZFnRp4ZeWbkme0pz53FWlPj/PsJhWvKtbfKJ62deis4+w8qkYYbLtNbKCZhLSrQqDEgdJTNnvHHOM0N31h+jfNUh7LpUpm4m09IeuqDejKD+meiFveG3vNTIFQBwfpfeSxWL07jR0vja/KqXk1pyZT48VWhg4ICAABA8K67b1UoCgrKry85R25b8ZjeAoJHUSEgdJTNnvLK6aLKCo0NDc5THY4ab+xHsMdHTUqD1GT0CMiZsnpdtf27qKyqMXMlZZrq75AYopDUTBIAAABBeXXjJvnT//xTbwXr3BMnyntNW+XPr7yt9wDB862ooL54VwvDvtKzM8DHSF53/xPyvQXL0lp++9iL9s98sq1Nop9us/9g7r1ilr0vtMrHy1F6Vak4x/R1f+JRk2pEgJoFlLzU6yEGqR4BmZbyebLSfSxk43y5ptehD0tkit0wUqmQeoYoAAAAhMIPb/+9XgvWPv36yQX/6xtyw7LV8qv//V96L4qJute2blXsJUwYqRCQmDsEIE80t7RKiXUiq6+9NA8eUTNTzonPOyiTY8br1WTxqQ9lMt0wN2KmG9C4QpZlVFVQdYWV4tYVGqqmmKdULFlu94RwNEiVnorRdZmi3wcAAEAu3PnQU3LwkP1kVOkB9nKYtRx9yIFSfvjI+PIfYw/zfUnOd4+97JoL5Xvzfyf/59JKOeKQg/RvCATPt0aN1j2PjSY16aGjrJ96PrGhZzPFrk0ZV8o03VSxt6crJDKTmzgqe2zU2KMpoyX+6EqL3QByfNdGjeI+yjKVColZvyuccwyNGlMjz4w8M/LMyDMjryuugQvXduuaeOWzL8vw/QdLv35dv4tV/9hL9/+cs5El6kvIZj39eOeuXXLEyOGyfft2GTtqpL0P6C6o8ylFhRChoyzQd8Vy0eoiz4w8M/LMyDMjz2xPeVwDF66PW1ql7o9P2utDrL+BvfbqWljYZ+9+MrBkX73lv09a2+3Xnbt2y4B99paLv32SvQ30JqjzaSTaFPVlHP6wEc4vxQnVG9VRNiwNYOqrZ8nq5/9HLp1+qt4DhJc6KQIAEBSugQEEIUzXwIxUCAHVUfbi2+7XW8FSHWWPOfxg+fXKP8mK6y/Re4Hw8rvSSp4ZeWbkmZFnRp5ZvudxDQwgLII6n9KoMQToKAsAAAAAyEcUFQJGR1kAAID85T7ejVEKAIoV0x8CREdZIHPFMrzWRZ4ZeWbkmZFnRp5ZunkoEg2zZeLjp8jauvjzy4HQCOr8x0iFALW2d8gb726Wv6x/U9ZteE9e2bgpvqy3ludeeUtefuu9rC1Pr/unfSy1vmHTR3L4QcMoKAAAAACprKmRiRMnyuw9PQ1ca5g9USoru31eFScqK2Wi2vlWnUy18lRmYpkqdW/pz1pURtf3dV73n51aJ0k/BuSEbyMVACAIxfZNGHlm5JmRZ0aeGXlm6eahSKhiQM0avWEZWSXLVs2WsXrTSP3M0i0iw2fERzioIoGza63UHVknU+f8XXbu/WVZqLLsY7xufepoqV1bJ2J9tubv1ubQnsdqmD1b1luv5XWXyNtTK+X/tojsd9YyWTU75W+EPKVmBNTWOus97+KDO/8xUgEAAAAAvNhcL5UTJ8rU5GEF3VWcIpOst8eueVycwQoN8vga66b/rUlyimkWhfq89TJS3pG3n6iTO9eMlCGdk6TWULyoqKuTq62lwnrn9MkjpXW/IbK5cYN+F8gNigoAAAAAkIHN9ZXSfcpCQoWc4lQV5HFVVWh4XJyawinWOwbqfetls4yWI7Y3yuYhIltHlsmRzru9aJDb6ztk5OYBUnUJ/R6QWxQVAOQdNfRLNYd1G8QCAACEwZP/L7lxQkLFKZPkLRkrax5vkIbH11hrb8mk5GEKTa9Lkx714EyvGCBVy9QIhPQ0zL5TZMIAmbxslTDzAbkWaW1p6zEbo7OzQ0pKBuit9DDXzCd0lAX2KHk+WbSpuc/nq1S8nP9SIS8z5GWGvMyQl5liyeMauMh076mgTapdK6kv39+SuqnzpVHaZYsMl4FSJtXudAbVbDG5p4L9eU29V/mkdMhombPWXGR4q26qzG+0/hZPWbWH3wH5LvkauLWl3VnxwO/zKY0awybpRLXnk5OjS6MX9/PJDWEueds6GdXLZv2WY6RUJVUyVUb382Py8dXJqvLJDpHRcyh4IHDdiwrF1AiMPDPyzMgzI8+MPLN081AkuhcV0mnUqNk3/09+LP+UL8jQydWJZoqpigoW+zq9l0aNXa75uUYveDRqRJ+tqUnvsTDJw6lcPYZVjThaRqiT3tq1srZWtX7pkPrK2XazmPiJyn1fL+55Sb1fWb9ZZPNWZwcAAABQ1NQXdNY1c5oFBWXs6ZOlafPesvfmJpl8ero/pZoxrpXaL1sr7vQIvajmkOqaX96y7hb0Yy55rCSCQFEh7ALuKKuqnzVrhlgrJdYPqFcAAAC43B4/6htEFIeRVctk7VoPvQvGzpZVa5+RZ7r/rNr/yGJ5JEWBQhUW3C/+3EWNdDDt70uhA/ADRYU8EVhH2Yo66+T0hCyrGqp3AAAAAEXKujaOT1sAYKOokGeC6igLAAAAAEB3vhUVGPqVXappohpmtWp2L2WAikukqnWgTHpnqSx9Z5IMbK2SLo+oTe6pYC962NWRZTJyq8iQzY2ywfkkAAAAACBk1L22atBoatIYJEYqhJ0uBOy5metYOX1yk7TJ+9b/tUnT5NPTm0s1drb8YNJm2VqyRmpo6gIAAAAA6AOKCqEVjo6yAAAAAAD0hqJCCIWpo6xr7OxVsnbVEzz/FqEQ1qFfAAAAQLGJRJuivlyWDxtRar/W1NBXAUDuNG9p1msAAOQe18AAghCma+BIzKLX49QvWDrcOUGm0ratXQYNHmivqyaNCidUALnk5XyVCnlm5JmRZ0aeGXlm+Z7HNTCAsAjqfMr0BwAAAAAA4AlFBQAAAMAjt8cPoxQAFCuKCgAAAAAAwBOKCgAAAAAAwBPfigoM/QIAAACAbtbPlTGRiETGzJX1elfCEpmi3nOXKUv0fqAnda+tmsOqJUwYqQAAAAAAWbFe5k6bL416qytVUKiSBr1la6iisIC8Q1EBAAAAAPxmj1CYIPPNFQXr7RqnoFBWLetiMYnVV9j7pWG5UFZAPqGoUGgYXoUiENahXwAAALYlUyQywRmhUFZW5uzrYr0sW+FUG8qmV0q5Wpl5g1TbH22Q5VymI49EWlvaYno9rrOzQ0pKBuit9AwaPFCvITjrZe4YXQ1VFc+N85wTlM0wvEqpqJfY6pl6A8gPqqhQW+usR5ua+3y+SsXL+S8V8jJDXmbIywx5mSmWPK6BYaSKClUi9bHVMtNet67Cu1yfJ67bK+pj4lyOJ/aVVa+TjfMSV/KAknwN3NrS7qx44Pf5VGIG0aaoXktNFSQQEuuqY2XWP071j9Reyqpj6/Rbyrrqsq776yv0Zyti9fYngPxRU+O2hvX/fEWeGXlm5JmRZ0aeWaHkAb1yr7u7XJ/Xxyrsa3GJVSRdjNdXOPvKqpOv5AFH8jWwSVDnP6Y/FAKGVwEAAAAAAkBRoWBUSH0sJhtrj9LbZkeN7zmM6o1Xe3ZfAAAAwJ65PX54rDoyt15efUOvAnmEokIhmLlaYmq+lt7s6VV5zRmokKRcxqeuPwAAAADIivFyjB5gbPqCz/RFIBBWFBUAAAAAIKfKpXK6U1VoXLFM7LLC+mXizFiukHPoo4484ltRgaFf+YbhVQAAAEDm1FMbnEe29+WJ7eXzaqVCrTTOlwnWz7o90qTinBQjkFHM1L2226oxTBipUBQYXgUAAACEy0xZHat3CgsuHveOPERRoSgwvAoAAADIjnKZtzGmHvInxnqA3f/Men/jPOcpbF2owoLzs/ZCQQF5iKJC3mF4FRDWoV8AAABAsYlEm6K+XJYPG1Fqv9bU0Fchu1RRYYLMb1SjowzV0CVTJFLVIFJWLet6VEOXyJRIlVjvOhhehQLQvKVZrwEAkHtcAwMIQpiugSMxNc6mG/ULlg53TpCptG1rl0GDB9rrqkmjwgkVQC55OV+lQp4ZeWbkmZFnRp5ZvudxDQwgLII6nzL9AQAAAAAAeEJRAQAAAPDI7fHDKAUAxYqiAgAAAAAA8ISiAgAAAAAA8MS3ogJDvwAAAAAAyA51r62aw7oNYsOCkQoAAAAAAMATigoAAAAAAMATigoA8k5Yh34BAAAAxSbS2tIW0+txnZ0dUlIyQG+lZ9DggXoNALJLFRVqa531aFNzn89XqXg5/6VCXmbIywx5mSEvM8WSxzUwgFxJvgZubWl3Vjzw+3waiVn0elzzlmYpHV6qt3rXtq2dEymAnOteVPDzfOX3+Y88M/LMyDMjz4w8s6DyACDbkq+Be97FB3f+Y/oDAAAAAADwhKICAAAA4JHb40d9gwgAxYiiAgAAAAAA8ISiAgAAAAAA8MS3ogJDvwAAAAAAyA51r60aNJqaNAaJkQoAAAAAAMAT3x4pqUYpKDU1jFYAkF3Jj9PhkZJm5JmRZ0aeGXlm5HXV12tg999fe6Ly0kGeGXlm5JkVSl5Q51OKCgDyWrFctLrIMyPPjDwz8szIM9tTXl+vgd3P70m6w5vJMyPPjDyzQskL6nwaiTZF0/wVUxs2wvmlKCoAyCV1UgQAICh9vQbmpsmMPDPyzMgL1zVwYCMVGNpiRp4ZeWbk+V9pJc+MPDPyzMgzI8+MPDPyzMgzI8+MPDO/8wIrKhRy1ciEPDPyzMgzM+XxLwEz8szIMyPPjDwz8szIMyPPjDwz8szCnsfTHwAAAAAAgCe+FRXUN4hqMY1SUJWQ7tzPJy+tLe099pmQ1/Vn3IU8/eFuyOv6M+5SKHkAAAAAgsNIBQAAAAAA4AlFBQAAAAAA4AlFBQAAAAAA4AlFBQAAAAAA4AlFBQAAAAAA4EmktaWtR0/1zs4OKSkZoLcyR15myMsMeZkhLzPkZYa8zJCXGfIyQ15myMsMeZkhLzPFlicxg2hTVK+lpgoS6SDPjDwz8szIMyPPjDwz8szIMyPPjDwz8szIMyPPjDyzsOcx/QEAAAAAAHhCUQEAAAAAAHhCUQEAAAAAAHhCUQEAAAAAAHhCUQEAAAAAAHhCUQEAAAAAAHhCUQEAAAAAAHhCUQEAAAAAAHgSiTZFY3odAAAAAAAgfTEDVWhIR2tLm15LjTwz8szIMyPPjDwz8szIMyPPjDwz8szIMyPPjDwz8szCnsf0BwAAAAAA4AlFBQAAAAAA4AlFBQAAAAAA4AlFBQAAAAAA4AlFBQAAAAAA4AlFBQAAAAAA4AlFBQAAAAAA4AlFBQAAAAAA4EmktaUtptfjOjs7pKRkgN7KHHmZIS8z5GWGvMyQlxnyMkNeZsjLDHmZIS8z5GWGvMwUW57EDKJNUb2WmipIpIM8M/LMyDMjz4w8M/LMyDMjz4w8M/LMyDMjz4w8M/LMwp7H9AcAAAAAAOAJRQUAAAAAAOAJRQUAAAAAAOAJRQUAAAAAAOAJRQUAAAAAAOAJRQUAAAAAAOAJRQUAAAAAAOAJRQUAAAAAAOBJJNoUjel1AAAAAACA9MUMVKEhHa0tbXotNfLMyDMjz4w8M/LMyDMjz4w8M/LMyDMjz4w8M/LMyDMLex7THwAAAAAAgCcUFQAAAAAAgCcUFQAAAAAAgCcUFQAAAAAAgCcUFQAAAAAAgCcUFQAAAAAAgCcUFQAAAAAAgCcUFQAAAAAAgCeR1pa2mF6P6+zskJKSAXorc+RlhrzMkJcZ8jJDXmbIywx5mSEvM+RlhrzMkJcZ8jJTbHkSM4g2RfVaaqogkQ7yzMgzI8+MPDPyzMgzI8+MPDPyzMgzI8+MPDPyzMgzC3se0x8AAAAAAIAnFBUAAAAAAIAnFBUAAAAAAIAnFBUAAAAAAIAnFBUAAAAAAIAHIv8fTE8uUPBosroAAAAASUVORK5CYII=;" vertex="1" parent="1">
          <mxGeometry x="-150" y="40" width="1008.08" height="710" as="geometry" />
        </mxCell>
        <mxCell id="G-g93trVnGBwpuYnKkK7-2" value="" style="endArrow=classic;startArrow=classic;html=1;rounded=0;fillColor=#f8cecc;strokeColor=#b85450;strokeWidth=4;" edge="1" parent="1">
          <mxGeometry width="50" height="50" relative="1" as="geometry">
            <mxPoint y="632" as="sourcePoint" />
            <mxPoint x="650" y="632" as="targetPoint" />
            <Array as="points">
              <mxPoint y="270" />
              <mxPoint x="650" y="270" />
            </Array>
          </mxGeometry>
        </mxCell>
        <mxCell id="G-g93trVnGBwpuYnKkK7-3" value="" style="endArrow=classic;html=1;rounded=0;fillColor=#f8cecc;strokeColor=#b85450;strokeWidth=4;startArrow=classic;startFill=1;" edge="1" parent="1">
          <mxGeometry width="50" height="50" relative="1" as="geometry">
            <mxPoint x="110" y="724.5" as="sourcePoint" />
            <mxPoint x="186" y="724.5" as="targetPoint" />
          </mxGeometry>
        </mxCell>
        <mxCell id="G-g93trVnGBwpuYnKkK7-4" value="COMUNICAÃÃO ATRAVÃS DO TUNEL GRE" style="text;html=1;strokeColor=none;fillColor=none;align=center;verticalAlign=middle;whiteSpace=wrap;rounded=0;fontSize=16;fontStyle=1;fontColor=#FFFFFF;" vertex="1" parent="1">
          <mxGeometry x="200" y="710" width="340" height="30" as="geometry" />
        </mxCell>
      </root>
    </mxGraphModel>
  </diagram>
</mxfile>
